{"glyphs":{"0":{"ha":503,"x_min":76,"x_max":717,"o":"m 508 738 l 356 232 q 317 171 339 181 q 313 165 313 171 l 261 -11 q 268 -19 258 -19 q 431 35 368 -15 q 529 196 494 85 l 701 768 q 717 860 717 822 q 673 958 717 929 q 546 988 629 988 q 369 938 439 988 q 265 771 300 888 l 93 199 l 93 200 q 76 107 76 147 q 116 13 76 43 q 231 -19 156 -17 q 238 -14 235 -19 l 288 163 q 285 169 290 167 q 276 192 276 174 q 283 229 276 201 l 436 735 l 436 733 q 463 785 447 769 q 494 801 478 801 q 517 776 517 801 q 508 738 517 763 z "},"1":{"ha":503,"x_min":179,"x_max":658,"o":"m 431 785 l 182 3 q 189 -7 179 -7 l 357 -7 q 364 -1 361 -7 l 656 965 q 649 974 658 974 l 490 974 q 483 968 486 974 l 431 783 l 431 785 z "},"2":{"ha":503,"x_min":28,"x_max":713,"o":"m 38 -7 l 417 -7 q 424 0 424 -7 q 430 53 424 28 q 443 101 436 79 l 443 100 q 452 129 449 115 q 456 156 456 143 q 440 186 456 174 l 286 186 q 377 298 333 249 q 463 392 421 347 q 533 470 500 432 q 595 548 567 508 q 647 633 624 588 q 686 733 669 678 q 706 808 699 775 q 713 868 713 840 q 673 960 713 933 q 543 988 633 988 q 434 972 481 988 q 354 927 388 957 q 297 853 321 897 q 257 750 274 808 l 257 751 l 233 679 q 240 669 231 669 l 407 669 q 414 674 411 669 l 433 735 q 458 786 444 772 q 492 800 471 800 q 510 796 504 800 q 517 779 517 792 q 506 725 517 765 q 480 675 499 703 q 435 615 461 647 q 376 547 408 582 q 311 475 344 513 q 236 392 274 433 q 167 310 199 350 q 112 233 135 271 q 79 164 89 196 l 31 1 q 38 -7 28 -7 z "},"3":{"ha":503,"x_min":175,"x_max":715,"o":"m 294 167 l 239 167 q 232 163 233 167 l 178 -6 q 183 -15 175 -15 q 213 -19 197 -18 q 249 -21 229 -21 q 424 29 356 -21 q 528 196 492 79 l 572 342 q 583 388 579 365 q 586 429 586 410 q 574 483 586 461 q 532 514 561 506 q 622 573 590 528 q 674 685 654 618 l 674 683 l 700 767 q 715 860 715 821 q 672 958 715 928 q 546 988 629 988 q 370 938 439 988 q 267 771 301 888 l 238 678 q 244 669 235 669 l 404 669 q 411 675 408 669 l 433 746 q 456 790 442 778 q 490 801 471 801 q 518 778 518 801 q 517 765 518 772 q 513 749 515 758 l 486 661 q 462 617 476 629 q 428 606 447 606 l 350 606 q 343 600 346 606 l 289 422 q 296 414 286 414 l 374 414 q 399 390 399 414 q 397 367 399 381 q 388 333 394 353 l 363 249 l 363 250 q 332 183 347 200 q 294 167 317 167 z "},"4":{"ha":503,"x_min":72,"x_max":731,"o":"m 129 408 l 75 232 q 82 224 72 224 l 317 224 q 324 228 321 224 l 378 394 l 329 232 l 261 1 q 268 -7 258 -7 l 429 -7 q 436 -1 433 -7 l 503 224 l 557 224 q 564 229 561 224 l 618 404 q 611 413 621 413 l 561 413 l 728 965 q 721 974 731 974 l 492 974 q 486 971 489 974 l 129 408 m 372 407 l 290 407 l 476 721 l 379 399 q 372 407 379 407 z "},"5":{"ha":503,"x_min":75,"x_max":701,"o":"m 261 268 l 125 268 q 118 264 119 268 l 94 197 q 79 144 83 169 q 75 99 75 119 q 119 3 75 33 q 246 -26 164 -26 q 422 24 353 -26 q 528 192 490 75 l 619 503 l 619 501 q 628 539 626 521 q 631 574 631 557 q 602 658 631 628 q 529 688 574 688 q 472 680 506 688 q 415 649 439 672 l 456 779 l 668 779 q 675 783 672 779 l 701 858 l 701 921 q 699 927 700 924 q 697 933 699 931 l 699 932 q 687 956 696 943 q 650 974 678 969 l 351 974 q 344 968 347 974 l 183 440 q 190 432 181 432 l 332 432 q 338 436 333 432 l 346 451 q 401 511 361 511 q 426 483 426 511 q 415 425 426 467 l 363 251 q 331 181 347 199 q 294 163 315 163 l 269 163 q 251 165 258 163 q 243 181 243 168 q 251 214 243 190 l 268 258 q 261 268 271 268 z "},"6":{"ha":503,"x_min":76,"x_max":717,"o":"m 403 389 l 350 211 q 328 176 343 186 q 296 167 313 167 q 274 185 274 167 q 278 208 274 193 q 327 375 306 301 q 367 510 349 449 q 403 628 386 572 q 439 742 421 683 q 494 801 457 801 q 518 779 518 801 q 511 744 518 768 l 492 681 q 499 672 489 672 l 667 672 q 674 678 671 672 l 700 765 q 717 863 717 819 q 677 956 717 925 q 546 988 638 988 q 440 973 486 988 q 360 929 394 958 q 301 854 326 900 q 257 746 276 808 l 90 193 q 76 107 76 147 q 249 -21 76 -21 q 427 30 360 -21 q 526 190 494 81 l 593 413 l 593 411 q 603 454 600 433 q 607 494 607 475 q 577 578 607 547 q 486 610 547 610 q 448 605 472 610 q 399 582 424 600 l 353 438 q 361 429 350 426 q 379 432 372 432 q 399 427 390 432 q 407 410 407 422 q 403 389 407 401 z "},"7":{"ha":503,"x_min":67,"x_max":742,"o":"m 486 779 l 72 3 q 78 -7 67 -7 l 256 -7 q 261 -3 257 -7 l 692 807 l 739 965 q 732 974 742 974 l 354 974 q 347 968 350 974 l 292 788 q 299 779 289 779 l 486 779 z "},"8":{"ha":503,"x_min":69,"x_max":715,"o":"m 128 335 l 85 193 q 69 103 69 139 q 115 6 69 33 q 249 -21 161 -21 q 349 -10 304 -21 q 429 26 394 1 q 490 92 464 51 q 532 190 515 132 l 575 329 l 575 328 q 589 383 585 357 q 593 429 593 408 q 549 511 593 488 l 413 517 q 406 511 408 517 l 383 440 q 389 432 381 432 q 413 408 413 428 q 410 394 413 403 l 356 211 q 299 167 342 167 q 269 190 269 167 q 271 203 269 199 l 325 386 l 325 385 q 375 432 338 428 q 381 438 381 432 l 403 508 q 396 517 406 517 l 296 521 l 293 521 q 195 470 235 514 q 128 335 156 426 m 414 679 l 428 724 q 457 784 440 767 q 494 801 474 801 q 519 774 519 801 q 511 726 519 757 l 497 682 q 472 627 486 644 q 440 606 458 610 q 435 601 435 606 l 411 529 q 418 519 408 519 l 528 515 q 625 583 594 533 q 678 703 656 632 l 704 789 q 713 824 710 808 q 715 857 715 840 q 673 953 715 919 q 546 988 631 988 q 371 935 440 988 q 274 792 301 883 l 247 706 q 233 651 239 676 q 228 603 228 626 q 264 526 228 550 l 401 521 q 408 525 406 521 l 432 594 q 425 604 435 604 q 404 629 404 606 q 407 650 404 638 q 414 679 410 663 z "},"9":{"ha":503,"x_min":76,"x_max":717,"o":"m 393 353 l 356 225 l 356 226 q 299 167 338 167 q 276 188 276 167 q 283 222 276 197 l 301 288 q 294 296 304 296 l 126 296 q 119 290 122 296 l 93 201 q 76 106 76 147 q 117 11 76 43 q 249 -21 157 -21 q 433 38 368 -21 q 536 221 499 97 l 703 774 q 717 861 717 821 q 546 988 717 988 q 367 938 435 988 q 267 776 299 888 l 200 556 l 200 557 q 190 514 193 535 q 186 474 186 493 q 216 388 186 419 q 307 357 246 357 q 350 363 322 357 q 404 390 378 368 q 399 373 401 382 q 393 353 396 364 m 390 578 l 443 756 q 494 801 456 801 q 519 782 519 801 q 515 758 519 772 q 490 670 500 706 q 469 606 479 635 q 459 574 464 589 q 450 543 454 558 q 440 544 444 549 q 411 536 429 536 q 386 554 386 536 q 390 578 386 563 z "},"\u0006":{"ha":264,"x_min":164,"x_max":390,"o":"m 381 1353 l 228 1353 q 221 1347 224 1353 l 167 1167 q 174 1158 164 1158 l 326 1158 q 333 1164 331 1158 l 388 1344 q 381 1353 390 1353 z "},"\b":{"ha":721,"x_min":339,"x_max":704,"o":"m 635 1125 l 696 1325 q 704 1379 704 1354 q 683 1442 704 1419 q 626 1464 661 1464 l 556 1464 q 471 1429 513 1464 q 408 1328 429 1394 l 347 1128 q 339 1075 339 1099 q 360 1011 339 1033 q 417 989 382 989 l 447 989 q 454 993 451 989 l 489 1097 q 482 1107 492 1107 q 465 1125 465 1107 q 467 1135 465 1131 l 519 1314 l 519 1313 q 535 1335 524 1325 q 561 1346 547 1346 q 575 1341 571 1346 q 579 1329 579 1336 q 576 1317 579 1325 l 524 1139 q 497 1110 519 1121 q 493 1106 493 1110 l 457 999 q 464 989 454 989 l 488 989 q 573 1024 531 989 q 635 1125 615 1058 z "},"\f":{"ha":708,"x_min":308,"x_max":769,"o":"m 758 1465 l 628 1465 q 622 1463 625 1465 l 469 1203 l 451 1444 q 444 1451 451 1451 l 315 1451 q 308 1443 308 1451 l 357 989 q 364 983 357 983 l 482 983 q 488 986 485 983 l 764 1454 q 758 1465 769 1465 z "},"\r":{"ha":285,"x_min":47,"x_max":538,"o":"m 57 -7 l 229 -7 q 236 -1 233 -7 l 535 990 q 528 999 538 999 l 356 999 q 349 993 351 999 l 50 1 q 57 -7 47 -7 z "},"\u0019":{"ha":350,"x_min":-24,"x_max":671,"o":"m 661 1018 l 528 1018 q 522 1014 526 1018 l -18 -17 q -12 -26 -24 -26 l 119 -26 q 125 -22 121 -26 l 667 1008 q 661 1018 671 1018 z "},"\u001e":{"ha":460,"x_min":17,"x_max":868,"o":"m 857 1465 l 726 1465 q 721 1463 724 1465 l 568 1203 l 550 1444 q 543 1451 550 1451 l 414 1451 q 407 1443 407 1451 l 454 999 l 331 999 q 324 993 326 999 l 268 813 q 275 804 265 804 l 463 804 l 74 183 l 19 1 q 26 -7 17 -7 l 447 -7 q 454 -1 451 -7 l 508 179 q 501 188 511 188 l 279 188 l 678 808 l 733 990 q 726 999 736 999 l 593 999 l 863 1454 q 857 1465 868 1465 z "},"\u001f":{"ha":460,"x_min":17,"x_max":868,"o":"m 26 -7 l 447 -7 q 454 -1 451 -7 l 508 179 q 501 188 511 188 l 279 188 l 678 808 l 733 990 q 726 999 736 999 l 593 999 l 863 1454 q 857 1465 868 1465 l 726 1465 q 721 1463 724 1465 l 568 1203 l 550 1444 q 543 1451 550 1451 l 414 1451 q 407 1443 407 1451 l 454 999 l 331 999 q 324 993 326 999 l 268 813 q 275 804 265 804 l 463 804 l 74 183 l 19 1 q 26 -7 17 -7 z "}," ":{"ha":251,"x_min":0,"x_max":0,"o":""},"!":{"ha":306,"x_min":67,"x_max":549,"o":"m 311 294 l 546 989 q 539 999 549 999 l 365 999 q 358 993 361 999 l 174 299 q 181 290 171 290 l 304 290 q 311 294 308 290 m 285 188 l 131 188 q 124 182 126 188 l 69 1 q 76 -7 67 -7 l 231 -7 q 238 -1 235 -7 l 292 179 q 285 188 294 188 z "},"\"":{"ha":444,"x_min":203,"x_max":674,"o":"m 525 993 l 411 618 q 418 610 408 610 l 550 610 q 557 615 554 610 l 671 990 q 664 999 674 999 l 532 999 q 525 993 528 999 m 319 993 l 206 618 q 213 610 203 610 l 344 610 q 351 615 349 610 l 465 990 q 458 999 468 999 l 326 999 q 319 993 322 999 z "},"#":{"ha":503,"x_min":60,"x_max":742,"o":"m 393 560 l 658 560 q 665 564 663 560 l 707 689 q 700 699 710 699 l 633 699 l 739 964 q 732 974 742 974 l 642 974 q 635 969 636 974 l 525 699 l 251 699 q 244 694 246 699 l 204 569 q 211 560 201 560 l 285 560 l 228 419 q 235 410 225 410 l 326 410 q 333 414 331 410 l 393 560 m 408 407 l 135 407 q 128 403 129 407 l 88 278 q 94 268 85 268 l 169 268 l 63 3 q 69 -7 60 -7 l 161 -7 q 168 -3 165 -7 l 278 268 l 543 268 q 550 274 547 268 l 589 399 q 582 407 592 407 l 517 407 l 572 544 q 565 554 575 554 l 474 554 q 467 550 468 554 l 408 407 m 256 -7 l 347 -7 q 354 -3 351 -7 l 457 256 q 450 265 460 265 l 357 265 q 350 261 351 265 l 249 3 q 256 -7 246 -7 m 451 707 l 554 964 q 547 974 557 974 l 454 974 q 447 969 449 974 l 346 713 q 353 703 343 703 l 444 703 q 451 707 449 703 z "},"$":{"ha":503,"x_min":171,"x_max":738,"o":"m 250 140 l 174 -112 q 181 -121 171 -121 l 253 -121 q 260 -115 257 -121 l 288 -26 q 378 -14 338 -26 q 453 29 419 -1 q 517 113 488 60 q 571 249 546 165 q 583 300 579 276 q 586 347 586 324 q 576 418 586 386 q 551 477 567 450 q 515 527 535 504 q 478 571 496 550 q 423 638 447 606 q 399 710 399 669 q 406 749 399 725 q 499 829 429 829 q 536 820 521 829 q 551 789 551 811 q 546 757 551 774 l 526 690 q 533 682 524 682 l 686 682 q 693 688 690 682 l 722 785 l 722 783 q 738 874 738 832 q 706 961 738 926 q 596 999 675 996 l 621 1085 q 614 1093 624 1093 l 542 1093 q 535 1088 538 1093 l 508 999 q 416 983 458 997 q 338 936 374 968 q 275 853 303 904 q 225 726 247 801 q 213 676 217 699 q 210 631 210 653 q 220 560 210 590 q 247 503 231 529 q 285 457 264 478 q 326 418 306 436 q 382 360 358 389 q 406 293 406 332 q 400 256 406 274 q 349 171 382 196 q 269 146 317 146 l 257 146 q 250 140 253 146 z "},"%":{"ha":721,"x_min":36,"x_max":983,"o":"m 513 649 l 574 849 q 582 903 582 878 q 560 965 582 943 q 504 988 539 988 l 433 988 q 349 953 390 988 q 286 851 307 918 l 225 651 q 217 599 217 622 q 238 535 217 557 q 294 513 260 513 l 325 513 q 332 517 329 513 l 367 621 q 360 631 369 631 q 343 649 343 631 q 344 658 343 654 l 397 838 l 397 836 q 413 859 401 849 q 439 869 425 869 q 453 865 449 869 q 457 853 457 860 q 454 840 457 849 l 401 663 q 375 633 397 644 q 371 629 371 633 l 335 522 q 342 513 332 513 l 365 513 q 451 547 408 513 q 513 649 493 582 m 569 125 l 622 306 l 622 304 q 649 333 629 324 q 653 338 653 333 l 686 446 q 679 454 689 454 l 657 454 q 572 419 614 454 q 510 318 531 385 l 451 118 q 443 64 443 89 q 465 1 443 24 q 521 -21 486 -21 l 592 -21 q 676 14 635 -21 q 739 114 718 49 l 797 315 q 806 369 806 344 q 784 432 806 410 q 728 454 763 454 l 696 454 q 689 449 692 454 l 658 344 q 665 336 656 336 q 682 319 682 333 q 679 308 682 317 l 626 129 q 613 108 624 118 q 588 97 603 97 q 572 103 576 97 q 568 117 568 110 q 569 125 568 121 m 975 988 l 894 988 q 889 985 892 988 l 39 -10 q 38 -17 36 -12 q 44 -21 39 -21 l 125 -21 q 131 -18 128 -21 l 981 976 q 982 983 983 979 q 975 988 981 988 z "},"&":{"ha":633,"x_min":61,"x_max":779,"o":"m 675 719 q 696 835 696 786 q 660 930 696 900 q 550 960 624 960 q 385 899 454 960 q 275 701 315 838 q 262 644 267 674 q 257 585 257 614 q 261 535 257 558 q 275 492 265 511 q 156 385 208 450 q 79 243 103 319 q 61 128 61 183 q 100 15 61 56 q 224 -26 139 -26 q 338 1 289 -26 q 440 86 388 29 q 443 81 442 83 q 446 75 444 78 q 461 40 454 56 q 480 15 468 25 q 509 -1 492 4 q 556 -7 526 -7 l 615 -7 q 622 -1 619 -7 l 675 174 q 668 182 678 182 l 629 182 q 613 193 618 185 q 603 215 607 201 q 604 215 601 218 q 607 211 607 211 q 605 217 608 211 q 589 246 601 224 l 776 475 q 778 482 779 478 q 771 486 776 486 l 597 486 q 592 483 594 486 l 522 400 l 492 471 q 550 517 524 494 q 599 567 576 539 q 641 631 622 594 q 675 719 660 667 m 282 163 q 251 174 261 163 q 242 204 242 185 q 247 236 242 219 q 278 299 257 271 q 326 347 299 326 l 378 229 q 282 163 319 163 m 428 657 q 436 714 428 685 l 436 713 q 467 772 449 753 q 504 790 485 790 q 531 760 531 790 q 524 722 531 747 q 494 658 513 682 q 435 604 476 635 q 428 657 428 629 z "},"'":{"ha":242,"x_min":207,"x_max":472,"o":"m 324 992 l 210 617 q 217 608 207 608 l 349 608 q 356 614 353 608 l 469 989 q 463 997 472 997 l 331 997 q 324 992 326 997 z "},"(":{"ha":350,"x_min":94,"x_max":613,"o":"m 311 -1 l 353 138 q 346 146 356 146 l 306 146 q 258 168 258 146 q 263 188 258 175 l 447 800 q 472 837 454 828 q 521 846 489 846 l 561 846 q 568 851 565 846 l 610 990 q 603 999 613 999 l 499 999 q 385 960 436 999 q 310 833 335 921 l 107 161 l 107 163 q 94 89 94 122 q 123 17 94 40 q 200 -7 151 -7 l 304 -7 q 311 -1 308 -7 z "},")":{"ha":350,"x_min":35,"x_max":551,"o":"m 79 140 l 38 1 q 44 -7 35 -7 l 150 -7 q 262 32 213 -7 q 338 158 311 71 l 540 831 q 549 869 547 851 q 551 903 551 888 q 524 975 551 951 q 449 999 497 999 l 343 999 q 336 993 339 999 l 294 854 q 301 846 292 846 l 342 846 q 389 822 389 846 q 389 814 389 818 q 386 803 389 810 l 201 192 q 176 155 193 164 q 126 146 158 146 l 86 146 q 79 140 82 146 z "},"*":{"ha":481,"x_min":272,"x_max":699,"o":"m 649 743 l 696 829 q 696 836 699 832 l 654 893 q 644 894 649 899 l 506 796 l 596 953 q 596 960 599 957 l 550 1015 q 540 1017 546 1019 l 461 961 q 458 956 458 958 l 456 792 l 372 893 q 363 894 367 899 l 288 838 q 285 832 285 835 l 279 746 q 286 739 279 739 l 415 739 l 283 653 q 281 647 281 650 l 272 558 q 279 551 272 551 l 361 551 q 367 556 363 551 l 454 711 l 447 558 q 454 551 447 551 l 536 551 q 542 556 538 551 l 589 644 q 589 651 592 649 l 507 739 l 643 739 q 649 743 644 739 z "},"+":{"ha":708,"x_min":124,"x_max":800,"o":"m 790 443 l 182 443 q 175 438 178 443 l 126 282 q 133 274 124 274 l 361 274 l 281 1 q 288 -7 278 -7 l 421 -7 q 428 -1 425 -7 l 510 274 l 742 274 q 749 279 746 274 l 797 435 q 790 443 800 443 m 578 511 l 644 714 q 638 724 647 724 l 504 724 q 497 719 499 724 l 431 517 q 438 507 428 507 l 571 507 q 578 511 575 507 z "},",":{"ha":251,"x_min":-28,"x_max":267,"o":"m 257 188 l 104 188 q 97 182 100 188 l 43 1 q 50 -7 40 -7 l 94 -7 l -22 -176 q -17 -187 -28 -187 l 69 -187 q 75 -185 72 -187 l 210 -3 l 264 179 q 257 188 267 188 z "},"-":{"ha":372,"x_min":124,"x_max":465,"o":"m 133 268 l 406 268 q 413 274 410 268 l 463 440 q 456 449 465 449 l 183 449 q 176 443 179 449 l 126 276 q 133 268 124 268 z "},".":{"ha":251,"x_min":40,"x_max":267,"o":"m 257 188 l 104 188 q 97 182 100 188 l 43 1 q 50 -7 40 -7 l 203 -7 q 210 -1 207 -7 l 264 179 q 257 188 267 188 z "},"/":{"ha":350,"x_min":-24,"x_max":671,"o":"m 661 1018 l 528 1018 q 522 1014 526 1018 l -18 -17 q -12 -26 -24 -26 l 119 -26 q 125 -22 121 -26 l 667 1008 q 661 1018 671 1018 z "},":":{"ha":251,"x_min":40,"x_max":417,"o":"m 407 686 l 254 686 q 247 681 250 686 l 192 500 q 199 492 189 492 l 351 492 q 358 497 356 492 l 414 678 q 407 686 417 686 m 257 188 l 104 188 q 97 182 100 188 l 43 1 q 50 -7 40 -7 l 203 -7 q 210 -1 207 -7 l 264 179 q 257 188 267 188 z "},";":{"ha":251,"x_min":-28,"x_max":417,"o":"m 257 188 l 104 188 q 97 182 100 188 l 43 1 q 50 -7 40 -7 l 94 -7 l -22 -176 q -17 -187 -28 -187 l 69 -187 q 75 -185 72 -187 l 210 -3 l 264 179 q 257 188 267 188 m 407 688 l 254 688 q 247 682 250 688 l 194 501 q 201 493 192 493 l 354 493 q 361 499 358 493 l 414 679 q 407 688 417 688 z "},"<":{"ha":708,"x_min":129,"x_max":883,"o":"m 346 357 l 832 564 q 836 569 836 564 l 882 719 q 880 727 883 724 q 872 728 876 731 l 174 428 q 169 422 169 428 l 132 297 q 135 290 129 293 l 653 -10 q 664 -6 661 -15 l 708 144 q 704 151 710 149 l 346 357 z "},"=":{"ha":708,"x_min":79,"x_max":846,"o":"m 796 432 l 843 588 q 836 596 846 596 l 228 596 q 221 590 224 596 l 174 435 q 181 426 171 426 l 789 426 q 796 432 793 426 m 704 126 l 750 282 q 743 290 753 290 l 135 290 q 128 285 131 290 l 82 129 q 89 121 79 121 l 697 121 q 704 126 701 121 z "},">":{"ha":708,"x_min":40,"x_max":794,"o":"m 575 360 l 90 153 q 86 147 86 153 l 42 -3 q 44 -10 40 -7 q 51 -11 47 -14 l 750 289 q 754 294 754 289 l 792 419 q 789 426 794 424 l 271 726 q 260 722 263 732 l 214 572 q 218 565 213 568 l 575 360 z "},"?":{"ha":481,"x_min":138,"x_max":701,"o":"m 238 293 l 392 293 q 399 299 396 293 l 422 376 q 467 463 439 432 q 528 522 496 494 q 535 528 531 525 q 542 533 539 531 l 540 533 q 577 571 558 550 q 615 619 596 592 q 651 682 633 646 q 683 768 668 718 q 701 878 701 828 q 544 1018 701 1018 q 449 1006 492 1018 q 372 965 407 993 q 311 891 338 938 q 265 778 285 844 l 265 779 l 239 696 q 246 686 236 686 l 400 686 q 407 692 404 686 l 425 754 l 425 753 q 458 828 442 807 q 492 849 475 849 q 510 822 510 849 q 496 757 510 799 q 451 669 481 706 q 388 601 422 633 q 320 531 351 568 q 271 440 289 494 l 231 301 q 238 293 228 293 m 356 188 l 201 188 q 194 182 197 188 l 140 1 q 147 -7 138 -7 l 301 -7 q 308 -1 306 -7 l 363 179 q 356 188 365 188 z "},"@":{"ha":944,"x_min":160,"x_max":1107,"o":"m 663 186 q 747 206 690 186 q 868 272 804 225 q 992 397 932 319 q 1088 590 1051 474 q 1103 657 1099 625 q 1107 721 1107 689 q 1083 845 1107 790 q 1018 939 1060 900 q 919 998 976 978 q 797 1018 863 1018 q 610 978 704 1018 q 433 867 515 938 q 285 702 350 797 q 186 496 219 607 q 160 324 160 407 q 183 180 160 244 q 251 69 207 115 q 356 -1 294 24 q 494 -26 418 -26 q 713 30 604 -26 q 915 190 821 86 q 917 197 918 193 q 910 201 915 201 l 799 201 q 672 129 740 157 q 536 101 604 101 q 360 166 424 101 q 296 343 296 231 q 321 493 296 410 q 390 650 346 578 q 492 775 435 722 q 618 858 550 828 q 760 888 686 888 q 922 835 863 888 q 982 682 982 783 q 961 554 982 626 q 922 459 944 500 q 875 390 900 418 q 826 349 850 363 q 782 335 801 335 q 778 339 778 335 q 782 354 778 342 q 794 390 789 379 q 801 403 797 397 q 803 406 804 408 l 965 744 q 958 754 969 754 l 858 754 q 853 750 857 754 l 610 258 q 607 240 607 244 q 623 199 607 213 q 663 186 639 186 m 535 353 q 492 369 507 353 q 478 414 478 386 q 486 461 478 433 q 513 518 494 490 q 555 567 531 546 q 606 603 579 589 q 660 617 633 617 q 701 601 688 617 q 714 558 714 586 q 713 539 714 546 q 717 531 711 533 q 725 535 722 529 l 803 692 q 758 756 789 736 q 683 776 728 776 q 572 748 626 776 q 472 673 518 719 q 389 567 425 626 q 335 443 353 507 q 322 360 322 401 q 360 239 322 286 q 461 192 399 192 q 521 208 489 192 q 583 247 553 224 l 664 411 q 662 419 667 417 q 653 418 657 422 q 597 371 628 389 q 535 353 567 353 z "},"A":{"ha":524,"x_min":-6,"x_max":682,"o":"m 4 -7 l 185 -7 q 192 -3 189 -7 l 260 168 l 365 168 l 335 1 q 342 -7 332 -7 l 519 -7 q 526 -1 526 -7 l 682 990 q 675 999 682 999 l 446 999 q 439 994 443 999 l -3 3 q -3 -4 -6 -1 q 4 -7 0 -7 m 404 363 l 338 363 l 488 744 l 404 363 z "},"B":{"ha":524,"x_min":42,"x_max":751,"o":"m 218 611 l 44 1 q 51 -7 42 -7 l 308 -7 q 472 45 413 -7 q 564 201 532 97 l 610 350 q 620 392 617 374 q 624 429 624 411 q 564 521 624 500 q 660 597 626 547 q 710 701 694 646 l 736 788 q 747 836 743 814 q 751 879 751 858 q 715 969 751 939 q 601 999 679 999 l 350 999 q 343 993 346 999 l 289 815 q 296 807 286 807 q 410 807 369 807 q 472 806 451 807 q 497 805 492 806 q 506 804 503 804 l 511 804 q 533 799 526 804 q 539 779 539 794 q 539 767 539 774 q 536 753 539 761 q 537 747 536 750 q 538 742 538 744 q 524 710 538 726 q 508 661 515 679 q 492 633 500 643 q 474 619 483 622 q 451 615 464 615 l 225 617 q 218 611 221 617 m 357 421 l 392 421 q 420 417 411 421 q 429 397 429 413 q 424 363 429 385 q 410 306 419 340 l 410 307 q 388 243 397 267 q 368 207 378 219 q 347 191 358 194 q 318 188 335 188 l 288 188 l 357 421 z "},"C":{"ha":503,"x_min":78,"x_max":736,"o":"m 268 779 l 99 215 q 78 101 78 149 q 119 4 78 35 q 251 -26 161 -26 l 268 -26 q 276 -26 272 -26 q 285 -25 281 -25 q 292 -19 289 -25 l 343 168 q 341 176 344 174 q 333 175 338 178 q 306 168 319 168 q 281 190 281 168 q 288 229 281 201 l 447 760 q 473 810 458 797 q 507 824 488 824 q 526 817 518 824 q 535 800 535 811 q 532 788 535 799 l 489 639 q 496 631 486 631 l 668 631 q 675 636 672 631 l 717 776 q 736 888 736 843 q 694 987 736 956 q 561 1018 651 1018 q 373 962 442 1018 q 268 779 304 906 z "},"D":{"ha":524,"x_min":254,"x_max":743,"o":"m 299 806 l 497 804 q 535 778 535 804 q 533 763 535 768 q 522 706 531 739 q 493 615 513 674 q 450 478 476 561 q 388 268 424 396 l 388 269 q 362 211 374 229 q 333 189 350 193 q 328 185 328 189 l 257 3 q 264 -7 254 -7 q 368 3 322 -7 q 450 41 414 14 q 514 115 486 68 q 564 232 542 161 l 721 757 q 738 822 732 793 q 743 875 743 851 q 697 973 743 947 q 563 999 650 999 l 350 999 q 343 993 346 999 l 292 814 q 299 806 289 806 z "},"E":{"ha":436,"x_min":42,"x_max":714,"o":"m 343 993 l 44 1 q 51 -7 42 -7 l 406 -7 q 413 -1 410 -7 l 467 179 q 460 188 469 188 l 288 188 l 357 421 l 525 421 q 532 426 529 421 l 588 607 q 581 615 590 615 l 417 615 l 472 804 l 649 804 q 656 810 653 804 l 711 990 q 704 999 714 999 l 350 999 q 343 993 346 999 z "},"F":{"ha":436,"x_min":42,"x_max":714,"o":"m 343 993 l 44 1 q 51 -7 42 -7 l 224 -7 q 231 -1 228 -7 l 357 421 l 525 421 q 532 426 529 421 l 588 607 q 581 615 590 615 l 417 615 l 472 804 l 649 804 q 656 810 653 804 l 711 990 q 704 999 714 999 l 350 999 q 343 993 346 999 z "},"G":{"ha":532,"x_min":78,"x_max":665,"o":"m 501 39 l 663 574 q 656 582 665 582 l 490 582 q 483 578 485 582 l 369 218 q 347 179 360 190 q 311 168 335 168 q 279 189 279 168 q 281 199 279 192 q 285 214 282 206 l 454 775 q 513 824 465 824 q 540 811 536 824 q 547 806 543 806 q 554 811 551 806 l 621 1006 q 614 1015 624 1015 q 590 1017 603 1017 q 561 1018 576 1018 q 373 962 442 1018 q 268 779 304 906 l 86 178 q 78 128 78 149 q 94 67 78 92 q 136 26 110 42 q 196 3 163 10 q 263 -4 229 -4 l 288 -4 q 340 -3 313 -4 q 394 1 367 -3 q 445 15 421 6 q 488 40 469 24 q 493 35 488 36 q 501 39 499 33 z "},"H":{"ha":547,"x_min":42,"x_max":804,"o":"m 343 993 l 44 1 q 51 -7 42 -7 l 224 -7 q 231 -1 228 -7 l 357 421 l 442 421 l 317 1 q 324 -7 314 -7 l 496 -7 q 503 -1 500 -7 l 801 990 q 794 999 804 999 l 622 999 q 615 993 618 999 l 501 615 l 417 615 l 529 990 q 522 999 532 999 l 350 999 q 343 993 346 999 z "},"I":{"ha":285,"x_min":47,"x_max":538,"o":"m 57 -7 l 229 -7 q 236 -1 233 -7 l 535 990 q 528 999 538 999 l 356 999 q 349 993 351 999 l 50 1 q 57 -7 47 -7 z "},"J":{"ha":481,"x_min":42,"x_max":744,"o":"m 268 319 l 100 319 q 93 314 96 319 l 64 215 q 47 149 53 179 q 42 96 42 119 q 86 -1 42 25 q 218 -26 131 -26 q 319 -15 275 -26 q 399 23 364 -4 q 460 97 433 50 q 508 213 488 143 l 742 990 q 735 999 744 999 l 563 999 q 556 993 558 999 l 324 224 q 301 181 314 193 q 267 168 289 168 q 240 188 240 168 q 247 221 240 197 l 275 311 q 268 319 278 319 z "},"K":{"ha":547,"x_min":42,"x_max":849,"o":"m 378 492 l 556 492 q 561 496 557 492 l 844 989 q 839 999 849 999 l 657 999 q 651 996 654 999 l 404 575 l 529 990 q 522 999 532 999 l 350 999 q 343 993 346 999 l 44 1 q 51 -7 42 -7 l 224 -7 q 231 -1 228 -7 l 378 492 z "},"L":{"ha":415,"x_min":42,"x_max":532,"o":"m 51 -7 l 406 -7 q 413 -1 410 -7 l 467 179 q 460 188 469 188 l 288 188 l 529 990 q 522 999 532 999 l 350 999 q 343 993 346 999 l 44 1 q 51 -7 42 -7 z "},"M":{"ha":808,"x_min":38,"x_max":1069,"o":"m 486 271 l 626 990 q 619 999 629 999 l 346 999 q 339 993 342 999 l 40 1 q 47 -7 38 -7 l 210 -7 q 217 -1 214 -7 l 444 753 l 311 1 q 318 -7 308 -7 l 490 -7 q 497 -3 494 -7 l 815 744 l 592 1 q 599 -7 589 -7 l 761 -7 q 768 -1 765 -7 l 1067 990 q 1060 999 1069 999 l 786 999 q 779 994 781 999 l 486 271 z "},"N":{"ha":633,"x_min":42,"x_max":890,"o":"m 517 349 l 576 992 q 569 999 576 999 l 350 999 q 343 993 346 999 l 44 1 q 51 -7 42 -7 l 215 -7 q 222 -1 219 -7 l 413 632 l 358 0 q 365 -7 358 -7 l 582 -7 q 589 -1 586 -7 l 888 990 q 881 999 890 999 l 718 999 q 711 993 714 999 l 517 349 z "},"O":{"ha":524,"x_min":76,"x_max":746,"o":"m 268 779 l 99 215 q 82 150 88 179 q 76 97 76 121 q 123 -1 76 25 q 257 -26 169 -26 q 360 -16 314 -26 q 442 22 406 -6 q 506 95 478 49 q 556 213 533 142 l 725 776 q 746 894 746 847 q 700 992 746 967 q 567 1018 654 1018 q 463 1008 508 1018 q 382 970 418 997 q 318 897 346 943 q 268 779 290 850 m 285 214 l 454 775 q 513 824 465 824 q 543 801 543 824 q 539 778 543 792 l 369 217 l 369 218 q 347 179 360 190 q 311 168 335 168 q 279 189 279 168 q 281 199 279 192 q 285 214 282 206 z "},"P":{"ha":503,"x_min":42,"x_max":744,"o":"m 331 343 l 392 543 l 394 546 l 472 804 l 511 804 q 532 801 525 804 q 539 785 539 799 q 532 740 539 769 q 510 663 525 711 q 489 599 499 624 q 470 561 479 575 q 451 542 461 547 q 428 538 440 538 l 422 538 q 415 533 417 538 l 354 353 q 361 343 351 343 l 369 343 q 481 354 435 343 q 562 392 528 365 q 620 463 596 418 q 665 575 644 507 l 722 764 q 744 885 744 835 q 701 974 744 950 q 563 999 658 999 l 350 999 q 343 993 346 999 l 44 1 q 51 -7 42 -7 l 224 -7 q 231 -1 228 -7 l 329 328 q 328 335 329 333 q 331 343 328 338 z "},"Q":{"ha":524,"x_min":76,"x_max":746,"o":"m 285 214 l 454 775 q 507 824 464 821 q 514 828 511 824 l 572 1008 q 565 1018 575 1018 q 461 1007 507 1018 q 380 969 415 996 q 317 896 344 942 q 268 779 290 850 l 99 215 q 82 150 88 179 q 76 97 76 121 q 103 17 76 44 q 182 -18 129 -10 l 160 -96 q 143 -182 143 -150 q 169 -242 143 -226 q 244 -257 196 -257 l 361 -257 q 368 -251 365 -257 l 415 -96 q 408 -87 418 -87 l 343 -87 q 319 -62 319 -87 q 322 -44 319 -58 l 322 -46 l 331 -19 q 405 1 371 -14 q 466 42 439 15 q 515 111 493 69 q 556 213 538 153 l 725 776 q 746 893 746 847 q 703 990 746 964 q 582 1018 661 1015 q 575 1013 578 1018 l 524 835 q 529 826 522 829 q 533 824 532 825 q 535 817 535 824 q 527 768 535 803 q 501 665 519 733 q 450 488 482 597 q 369 217 418 379 l 369 218 q 347 179 360 190 q 311 168 335 168 q 279 189 279 168 q 281 199 279 192 q 285 214 282 206 z "},"R":{"ha":524,"x_min":42,"x_max":717,"o":"m 442 804 l 479 804 q 508 779 508 804 q 496 711 508 758 q 465 633 479 650 q 426 615 450 615 q 419 610 419 615 l 381 429 q 386 421 378 421 q 415 394 415 418 q 414 379 415 385 l 328 42 l 329 43 q 326 32 326 36 q 325 22 325 28 q 325 8 325 15 q 328 -3 325 3 q 335 -7 329 -7 l 507 -7 q 514 3 517 -7 q 511 15 511 11 q 515 47 511 26 q 531 107 519 67 l 586 322 q 603 425 603 385 q 550 519 603 499 q 597 544 576 528 q 633 582 618 561 q 657 626 647 603 q 672 669 667 649 l 703 788 q 713 834 710 813 q 717 875 717 856 q 669 972 717 946 q 531 999 622 999 l 310 999 q 303 993 306 999 l 44 1 q 51 -7 42 -7 l 224 -7 q 231 -1 228 -7 l 442 804 z "},"S":{"ha":481,"x_min":200,"x_max":718,"o":"m 499 686 l 667 686 q 674 692 671 686 l 697 769 q 718 885 718 838 q 674 988 718 957 q 544 1018 631 1018 q 434 1003 482 1018 q 350 958 386 989 q 288 877 314 926 q 240 760 261 828 q 218 628 218 685 q 226 563 218 592 q 245 510 233 535 q 272 466 257 486 q 303 428 288 446 q 346 369 326 399 q 365 299 365 340 q 357 244 365 275 q 329 186 344 204 q 289 168 314 168 q 275 169 281 168 q 267 165 269 172 l 203 -17 q 210 -26 200 -26 l 235 -26 q 347 -13 299 -26 q 431 33 394 0 q 494 118 467 65 q 544 250 521 171 q 560 320 556 288 q 565 381 565 353 q 557 449 565 418 q 536 504 549 479 q 508 549 524 529 q 478 588 493 569 q 436 642 454 615 q 418 704 418 668 q 419 724 418 714 q 425 746 421 733 q 451 806 436 788 q 490 824 467 824 q 518 794 518 824 q 510 750 518 779 l 510 751 l 492 696 q 499 686 489 686 z "},"T":{"ha":436,"x_min":122,"x_max":740,"o":"m 365 804 l 125 1 q 132 -7 122 -7 l 304 -7 q 311 -1 308 -7 l 553 804 l 675 804 q 682 810 679 804 l 738 990 q 731 999 740 999 l 303 999 q 296 993 299 999 l 240 813 q 247 804 238 804 l 365 804 z "},"U":{"ha":524,"x_min":76,"x_max":792,"o":"m 556 213 l 789 990 q 782 999 792 999 l 610 999 q 603 993 606 999 l 378 246 q 349 183 363 197 q 311 168 335 168 q 289 172 296 168 q 282 190 282 176 q 293 243 282 206 l 518 990 q 511 999 521 999 l 339 999 q 332 993 335 999 l 99 215 q 82 150 88 179 q 76 97 76 121 q 123 -1 76 25 q 257 -26 169 -26 q 360 -16 314 -26 q 442 22 406 -6 q 506 95 478 49 q 556 213 533 142 z "},"V":{"ha":524,"x_min":140,"x_max":829,"o":"m 818 999 l 642 999 q 635 994 636 999 l 349 285 l 489 990 q 482 999 492 999 l 303 999 q 296 993 296 999 l 140 1 q 147 -7 140 -7 l 376 -7 q 383 -3 379 -7 l 825 989 q 818 999 829 999 z "},"W":{"ha":853,"x_min":125,"x_max":1157,"o":"m 296 993 l 128 1 q 135 -7 125 -7 l 351 -7 q 358 -3 356 -7 l 635 693 l 493 1 q 500 -7 490 -7 l 718 -7 q 725 -3 722 -7 l 1153 989 q 1146 999 1157 999 l 968 999 q 961 994 963 999 l 688 289 l 829 990 q 822 999 832 999 l 628 999 q 621 994 622 999 l 339 285 l 489 990 q 482 999 492 999 l 303 999 q 296 993 296 999 z "},"X":{"ha":568,"x_min":-7,"x_max":569,"o":"m 338 518 l -1 4 q 4 -7 -7 -7 l 188 -7 q 193 -4 190 -7 l 369 281 l 374 0 q 381 -7 374 -7 l 563 -7 q 569 0 569 -7 q 560 156 564 88 q 552 281 556 225 q 545 383 549 336 q 539 475 542 429 q 533 572 536 522 q 525 683 529 622 q 516 818 521 743 q 506 992 511 893 q 499 999 506 999 l 318 999 q 311 992 311 999 l 338 518 z "},"Y":{"ha":547,"x_min":176,"x_max":851,"o":"m 471 657 l 490 992 q 483 999 490 999 l 303 999 q 296 992 296 999 l 293 379 l 179 1 q 186 -7 176 -7 l 358 -7 q 365 -1 363 -7 l 479 375 l 846 988 q 840 999 851 999 l 660 999 q 654 994 658 999 l 471 657 z "},"Z":{"ha":460,"x_min":17,"x_max":736,"o":"m 26 -7 l 447 -7 q 454 -1 451 -7 l 508 179 q 501 188 511 188 l 279 188 l 678 808 l 733 990 q 726 999 736 999 l 331 999 q 324 993 326 999 l 268 813 q 275 804 265 804 l 463 804 l 74 183 l 19 1 q 26 -7 17 -7 z "},"[":{"ha":350,"x_min":57,"x_max":613,"o":"m 67 -7 l 304 -7 q 311 -1 308 -7 l 353 138 q 346 146 356 146 l 250 146 l 461 846 l 561 846 q 568 851 565 846 l 610 990 q 603 999 613 999 l 365 999 q 358 993 361 999 l 60 1 q 67 -7 57 -7 z "},"\\":{"ha":661,"x_min":217,"x_max":679,"o":"m 226 1014 q 219 1006 217 1014 l 531 -19 q 538 -25 533 -25 l 669 -25 q 676 -17 679 -25 l 367 1008 q 360 1014 364 1014 l 226 1014 z "},"]":{"ha":350,"x_min":35,"x_max":592,"o":"m 44 -7 l 283 -7 q 290 -1 288 -7 l 589 990 q 582 999 592 999 l 343 999 q 336 993 339 999 l 294 854 q 301 846 292 846 l 399 846 l 188 146 l 86 146 q 79 140 82 146 l 38 1 q 44 -7 35 -7 z "},"^":{"ha":708,"x_min":207,"x_max":765,"o":"m 215 439 l 346 439 q 351 442 349 439 l 592 792 l 622 446 q 629 439 622 439 l 758 439 q 765 447 765 439 l 711 968 q 704 974 711 974 l 586 974 q 581 971 583 974 l 210 450 q 209 442 207 446 q 215 439 211 439 z "},"_":{"ha":590,"x_min":-74,"x_max":568,"o":"m -64 -218 l 526 -218 q 533 -212 531 -218 l 565 -106 q 558 -97 568 -97 l -32 -97 q -39 -103 -36 -97 l -71 -210 q -64 -218 -74 -218 z "},"`":{"ha":242,"x_min":232,"x_max":631,"o":"m 413 1354 q 407 1356 411 1356 l 240 1356 q 233 1351 235 1356 q 235 1343 232 1346 l 449 1129 q 454 1128 450 1128 l 622 1128 q 629 1133 628 1128 q 628 1140 631 1138 l 413 1354 z "},"a":{"ha":524,"x_min":-6,"x_max":682,"o":"m 4 -7 l 185 -7 q 192 -3 189 -7 l 260 168 l 365 168 l 335 1 q 342 -7 332 -7 l 519 -7 q 526 -1 526 -7 l 682 990 q 675 999 682 999 l 446 999 q 439 994 443 999 l -3 3 q -3 -4 -6 -1 q 4 -7 0 -7 m 404 363 l 338 363 l 488 744 l 404 363 z "},"b":{"ha":524,"x_min":42,"x_max":751,"o":"m 218 611 l 44 1 q 51 -7 42 -7 l 308 -7 q 472 45 413 -7 q 564 201 532 97 l 610 350 q 620 392 617 374 q 624 429 624 411 q 564 521 624 500 q 660 597 626 547 q 710 701 694 646 l 736 788 q 747 836 743 814 q 751 879 751 858 q 715 969 751 939 q 601 999 679 999 l 350 999 q 343 993 346 999 l 289 815 q 296 807 286 807 q 410 807 369 807 q 472 806 451 807 q 497 805 492 806 q 506 804 503 804 l 511 804 q 533 799 526 804 q 539 779 539 794 q 539 767 539 774 q 536 753 539 761 q 537 747 536 750 q 538 742 538 744 q 524 710 538 726 q 508 661 515 679 q 492 633 500 643 q 474 619 483 622 q 451 615 464 615 l 225 617 q 218 611 221 617 m 357 421 l 392 421 q 420 417 411 421 q 429 397 429 413 q 424 363 429 385 q 410 306 419 340 l 410 307 q 388 243 397 267 q 368 207 378 219 q 347 191 358 194 q 318 188 335 188 l 288 188 l 357 421 z "},"c":{"ha":503,"x_min":78,"x_max":736,"o":"m 268 779 l 99 215 q 78 101 78 149 q 119 4 78 35 q 251 -26 161 -26 l 268 -26 q 276 -26 272 -26 q 285 -25 281 -25 q 292 -19 289 -25 l 343 168 q 341 176 344 174 q 333 175 338 178 q 306 168 319 168 q 281 190 281 168 q 288 229 281 201 l 447 760 q 473 810 458 797 q 507 824 488 824 q 526 817 518 824 q 535 800 535 811 q 532 788 535 799 l 489 639 q 496 631 486 631 l 668 631 q 675 636 672 631 l 717 776 q 736 888 736 843 q 694 987 736 956 q 561 1018 651 1018 q 373 962 442 1018 q 268 779 304 906 z "},"d":{"ha":524,"x_min":254,"x_max":743,"o":"m 299 806 l 497 804 q 535 778 535 804 q 533 763 535 768 q 522 706 531 739 q 493 615 513 674 q 450 478 476 561 q 388 268 424 396 l 388 269 q 362 211 374 229 q 333 189 350 193 q 328 185 328 189 l 257 3 q 264 -7 254 -7 q 368 3 322 -7 q 450 41 414 14 q 514 115 486 68 q 564 232 542 161 l 721 757 q 738 822 732 793 q 743 875 743 851 q 697 973 743 947 q 563 999 650 999 l 350 999 q 343 993 346 999 l 292 814 q 299 806 289 806 z "},"e":{"ha":436,"x_min":42,"x_max":714,"o":"m 343 993 l 44 1 q 51 -7 42 -7 l 406 -7 q 413 -1 410 -7 l 467 179 q 460 188 469 188 l 288 188 l 357 421 l 525 421 q 532 426 529 421 l 588 607 q 581 615 590 615 l 417 615 l 472 804 l 649 804 q 656 810 653 804 l 711 990 q 704 999 714 999 l 350 999 q 343 993 346 999 z "},"f":{"ha":436,"x_min":42,"x_max":714,"o":"m 343 993 l 44 1 q 51 -7 42 -7 l 224 -7 q 231 -1 228 -7 l 357 421 l 525 421 q 532 426 529 421 l 588 607 q 581 615 590 615 l 417 615 l 472 804 l 649 804 q 656 810 653 804 l 711 990 q 704 999 714 999 l 350 999 q 343 993 346 999 z "},"g":{"ha":532,"x_min":78,"x_max":665,"o":"m 501 39 l 663 574 q 656 582 665 582 l 490 582 q 483 578 485 582 l 369 218 q 347 179 360 190 q 311 168 335 168 q 279 189 279 168 q 281 199 279 192 q 285 214 282 206 l 454 775 q 513 824 465 824 q 540 811 536 824 q 547 806 543 806 q 554 811 551 806 l 621 1006 q 614 1015 624 1015 q 590 1017 603 1017 q 561 1018 576 1018 q 373 962 442 1018 q 268 779 304 906 l 86 178 q 78 128 78 149 q 94 67 78 92 q 136 26 110 42 q 196 3 163 10 q 263 -4 229 -4 l 288 -4 q 340 -3 313 -4 q 394 1 367 -3 q 445 15 421 6 q 488 40 469 24 q 493 35 488 36 q 501 39 499 33 z "},"h":{"ha":547,"x_min":42,"x_max":804,"o":"m 343 993 l 44 1 q 51 -7 42 -7 l 224 -7 q 231 -1 228 -7 l 357 421 l 442 421 l 317 1 q 324 -7 314 -7 l 496 -7 q 503 -1 500 -7 l 801 990 q 794 999 804 999 l 622 999 q 615 993 618 999 l 501 615 l 417 615 l 529 990 q 522 999 532 999 l 350 999 q 343 993 346 999 z "},"i":{"ha":285,"x_min":47,"x_max":538,"o":"m 57 -7 l 229 -7 q 236 -1 233 -7 l 535 990 q 528 999 538 999 l 356 999 q 349 993 351 999 l 50 1 q 57 -7 47 -7 z "},"j":{"ha":481,"x_min":42,"x_max":744,"o":"m 268 319 l 100 319 q 93 314 96 319 l 64 215 q 47 149 53 179 q 42 96 42 119 q 86 -1 42 25 q 218 -26 131 -26 q 319 -15 275 -26 q 399 23 364 -4 q 460 97 433 50 q 508 213 488 143 l 742 990 q 735 999 744 999 l 563 999 q 556 993 558 999 l 324 224 q 301 181 314 193 q 267 168 289 168 q 240 188 240 168 q 247 221 240 197 l 275 311 q 268 319 278 319 z "},"k":{"ha":547,"x_min":42,"x_max":849,"o":"m 378 492 l 556 492 q 561 496 557 492 l 844 989 q 839 999 849 999 l 657 999 q 651 996 654 999 l 404 575 l 529 990 q 522 999 532 999 l 350 999 q 343 993 346 999 l 44 1 q 51 -7 42 -7 l 224 -7 q 231 -1 228 -7 l 378 492 z "},"l":{"ha":415,"x_min":42,"x_max":532,"o":"m 51 -7 l 406 -7 q 413 -1 410 -7 l 467 179 q 460 188 469 188 l 288 188 l 529 990 q 522 999 532 999 l 350 999 q 343 993 346 999 l 44 1 q 51 -7 42 -7 z "},"m":{"ha":808,"x_min":38,"x_max":1069,"o":"m 486 271 l 626 990 q 619 999 629 999 l 346 999 q 339 993 342 999 l 40 1 q 47 -7 38 -7 l 210 -7 q 217 -1 214 -7 l 444 753 l 311 1 q 318 -7 308 -7 l 490 -7 q 497 -3 494 -7 l 815 744 l 592 1 q 599 -7 589 -7 l 761 -7 q 768 -1 765 -7 l 1067 990 q 1060 999 1069 999 l 786 999 q 779 994 781 999 l 486 271 z "},"n":{"ha":633,"x_min":42,"x_max":890,"o":"m 517 349 l 576 992 q 569 999 576 999 l 350 999 q 343 993 346 999 l 44 1 q 51 -7 42 -7 l 215 -7 q 222 -1 219 -7 l 413 632 l 358 0 q 365 -7 358 -7 l 582 -7 q 589 -1 586 -7 l 888 990 q 881 999 890 999 l 718 999 q 711 993 714 999 l 517 349 z "},"o":{"ha":524,"x_min":76,"x_max":746,"o":"m 268 779 l 99 215 q 82 150 88 179 q 76 97 76 121 q 123 -1 76 25 q 257 -26 169 -26 q 360 -16 314 -26 q 442 22 406 -6 q 506 95 478 49 q 556 213 533 142 l 725 776 q 746 894 746 847 q 700 992 746 967 q 567 1018 654 1018 q 463 1008 508 1018 q 382 970 418 997 q 318 897 346 943 q 268 779 290 850 m 285 214 l 454 775 q 513 824 465 824 q 543 801 543 824 q 539 778 543 792 l 369 217 l 369 218 q 347 179 360 190 q 311 168 335 168 q 279 189 279 168 q 281 199 279 192 q 285 214 282 206 z "},"p":{"ha":503,"x_min":42,"x_max":744,"o":"m 331 343 l 392 543 l 394 546 l 472 804 l 511 804 q 532 801 525 804 q 539 785 539 799 q 532 740 539 769 q 510 663 525 711 q 489 599 499 624 q 470 561 479 575 q 451 542 461 547 q 428 538 440 538 l 422 538 q 415 533 417 538 l 354 353 q 361 343 351 343 l 369 343 q 481 354 435 343 q 562 392 528 365 q 620 463 596 418 q 665 575 644 507 l 722 764 q 744 885 744 835 q 701 974 744 950 q 563 999 658 999 l 350 999 q 343 993 346 999 l 44 1 q 51 -7 42 -7 l 224 -7 q 231 -1 228 -7 l 329 328 q 328 335 329 333 q 331 343 328 338 z "},"q":{"ha":524,"x_min":76,"x_max":746,"o":"m 285 214 l 454 775 q 507 824 464 821 q 514 828 511 824 l 572 1008 q 565 1018 575 1018 q 461 1007 507 1018 q 380 969 415 996 q 317 896 344 942 q 268 779 290 850 l 99 215 q 82 150 88 179 q 76 97 76 121 q 103 17 76 44 q 182 -18 129 -10 l 160 -96 q 143 -182 143 -150 q 169 -242 143 -226 q 244 -257 196 -257 l 361 -257 q 368 -251 365 -257 l 415 -96 q 408 -87 418 -87 l 343 -87 q 319 -62 319 -87 q 322 -44 319 -58 l 322 -46 l 331 -19 q 405 1 371 -14 q 466 42 439 15 q 515 111 493 69 q 556 213 538 153 l 725 776 q 746 893 746 847 q 703 990 746 964 q 582 1018 661 1015 q 575 1013 578 1018 l 524 835 q 529 826 522 829 q 533 824 532 825 q 535 817 535 824 q 527 768 535 803 q 501 665 519 733 q 450 488 482 597 q 369 217 418 379 l 369 218 q 347 179 360 190 q 311 168 335 168 q 279 189 279 168 q 281 199 279 192 q 285 214 282 206 z "},"r":{"ha":524,"x_min":42,"x_max":717,"o":"m 442 804 l 479 804 q 508 779 508 804 q 496 711 508 758 q 465 633 479 650 q 426 615 450 615 q 419 610 419 615 l 381 429 q 386 421 378 421 q 415 394 415 418 q 414 379 415 385 l 328 42 l 329 43 q 326 32 326 36 q 325 22 325 28 q 325 8 325 15 q 328 -3 325 3 q 335 -7 329 -7 l 507 -7 q 514 3 517 -7 q 511 15 511 11 q 515 47 511 26 q 531 107 519 67 l 586 322 q 603 425 603 385 q 550 519 603 499 q 597 544 576 528 q 633 582 618 561 q 657 626 647 603 q 672 669 667 649 l 703 788 q 713 834 710 813 q 717 875 717 856 q 669 972 717 946 q 531 999 622 999 l 310 999 q 303 993 306 999 l 44 1 q 51 -7 42 -7 l 224 -7 q 231 -1 228 -7 l 442 804 z "},"s":{"ha":481,"x_min":200,"x_max":718,"o":"m 499 686 l 667 686 q 674 692 671 686 l 697 769 q 718 885 718 838 q 674 988 718 957 q 544 1018 631 1018 q 434 1003 482 1018 q 350 958 386 989 q 288 877 314 926 q 240 760 261 828 q 218 628 218 685 q 226 563 218 592 q 245 510 233 535 q 272 466 257 486 q 303 428 288 446 q 346 369 326 399 q 365 299 365 340 q 357 244 365 275 q 329 186 344 204 q 289 168 314 168 q 275 169 281 168 q 267 165 269 172 l 203 -17 q 210 -26 200 -26 l 235 -26 q 347 -13 299 -26 q 431 33 394 0 q 494 118 467 65 q 544 250 521 171 q 560 320 556 288 q 565 381 565 353 q 557 449 565 418 q 536 504 549 479 q 508 549 524 529 q 478 588 493 569 q 436 642 454 615 q 418 704 418 668 q 419 724 418 714 q 425 746 421 733 q 451 806 436 788 q 490 824 467 824 q 518 794 518 824 q 510 750 518 779 l 510 751 l 492 696 q 499 686 489 686 z "},"t":{"ha":436,"x_min":122,"x_max":740,"o":"m 365 804 l 125 1 q 132 -7 122 -7 l 304 -7 q 311 -1 308 -7 l 553 804 l 675 804 q 682 810 679 804 l 738 990 q 731 999 740 999 l 303 999 q 296 993 299 999 l 240 813 q 247 804 238 804 l 365 804 z "},"u":{"ha":524,"x_min":76,"x_max":792,"o":"m 556 213 l 789 990 q 782 999 792 999 l 610 999 q 603 993 606 999 l 378 246 q 349 183 363 197 q 311 168 335 168 q 289 172 296 168 q 282 190 282 176 q 293 243 282 206 l 518 990 q 511 999 521 999 l 339 999 q 332 993 335 999 l 99 215 q 82 150 88 179 q 76 97 76 121 q 123 -1 76 25 q 257 -26 169 -26 q 360 -16 314 -26 q 442 22 406 -6 q 506 95 478 49 q 556 213 533 142 z "},"v":{"ha":524,"x_min":140,"x_max":829,"o":"m 818 999 l 642 999 q 635 994 636 999 l 349 285 l 489 990 q 482 999 492 999 l 303 999 q 296 993 296 999 l 140 1 q 147 -7 140 -7 l 376 -7 q 383 -3 379 -7 l 825 989 q 818 999 829 999 z "},"w":{"ha":853,"x_min":125,"x_max":1157,"o":"m 296 993 l 128 1 q 135 -7 125 -7 l 351 -7 q 358 -3 356 -7 l 635 693 l 493 1 q 500 -7 490 -7 l 718 -7 q 725 -3 722 -7 l 1153 989 q 1146 999 1157 999 l 968 999 q 961 994 963 999 l 688 289 l 829 990 q 822 999 832 999 l 628 999 q 621 994 622 999 l 339 285 l 489 990 q 482 999 492 999 l 303 999 q 296 993 296 999 z "},"x":{"ha":568,"x_min":-7,"x_max":569,"o":"m 338 518 l -1 4 q 4 -7 -7 -7 l 188 -7 q 193 -4 190 -7 l 369 281 l 374 0 q 381 -7 374 -7 l 563 -7 q 569 0 569 -7 l 506 992 q 499 999 506 999 l 318 999 q 311 992 311 999 l 338 518 z "},"y":{"ha":547,"x_min":176,"x_max":851,"o":"m 471 657 l 490 992 q 483 999 490 999 l 303 999 q 296 992 296 999 l 293 379 l 179 1 q 186 -7 176 -7 l 358 -7 q 365 -1 363 -7 l 479 375 l 846 988 q 840 999 851 999 l 660 999 q 654 994 658 999 l 471 657 z "},"z":{"ha":460,"x_min":17,"x_max":736,"o":"m 26 -7 l 447 -7 q 454 -1 451 -7 l 508 179 q 501 188 511 188 l 279 188 l 678 808 l 733 990 q 726 999 736 999 l 331 999 q 324 993 326 999 l 268 813 q 275 804 265 804 l 463 804 l 74 183 l 19 1 q 26 -7 17 -7 z "},"{":{"ha":329,"x_min":118,"x_max":585,"o":"m 197 568 l 157 429 q 164 421 154 421 q 186 411 176 419 q 196 385 196 403 q 190 353 196 369 l 131 146 l 131 147 q 118 76 118 107 q 204 -7 118 -7 l 286 -7 q 293 -1 290 -7 l 333 138 q 326 146 336 146 l 307 146 q 278 164 278 146 q 285 199 278 174 l 340 388 q 346 426 346 406 q 331 474 346 457 q 299 497 315 490 q 358 532 326 507 q 404 610 389 557 l 457 790 q 478 835 467 824 q 514 846 490 846 l 535 846 q 542 851 539 846 l 582 990 q 575 999 585 999 l 493 999 q 396 960 435 999 q 335 849 357 922 l 275 642 q 244 590 264 606 q 204 574 225 574 q 197 568 200 574 z "},"|":{"ha":247,"x_min":-75,"x_max":575,"o":"m 433 1189 l -72 -199 q -65 -208 -75 -208 l 60 -208 q 67 -204 64 -208 l 572 1183 q 565 1193 575 1193 l 440 1193 q 433 1189 435 1193 z "},"}":{"ha":329,"x_min":32,"x_max":565,"o":"m 451 425 l 501 564 q 494 574 504 574 q 474 581 482 574 q 465 603 465 588 q 474 638 465 614 l 549 844 q 565 926 565 890 q 486 999 565 999 l 403 999 q 396 994 397 999 l 344 856 q 351 846 342 846 l 372 846 q 399 831 399 846 q 389 794 399 818 l 324 614 q 317 589 318 600 q 315 567 315 578 q 328 523 315 539 q 356 500 340 507 q 295 468 328 493 q 243 392 263 443 l 174 203 q 149 157 163 168 q 113 146 136 146 l 92 146 q 85 142 86 146 l 35 3 q 42 -7 32 -7 l 125 -7 q 224 31 183 -7 q 293 142 265 69 l 368 349 q 403 403 382 388 q 444 421 425 419 q 451 425 449 421 z "},"~":{"ha":667,"x_min":196,"x_max":732,"o":"m 726 356 l 732 483 q 727 490 732 489 q 719 488 722 492 q 649 416 679 442 q 592 390 619 390 q 560 400 576 390 q 519 426 544 410 l 501 439 q 443 473 469 461 q 389 485 417 485 q 289 451 336 485 q 201 361 242 417 l 196 233 q 201 226 196 228 q 208 229 206 225 q 278 301 249 275 q 335 326 307 326 q 367 318 350 326 q 408 290 383 310 l 426 278 q 485 244 458 256 q 539 232 511 232 q 638 266 592 232 q 726 356 685 300 z "},"¡":{"ha":315,"x_min":-22,"x_max":460,"o":"m 215 460 l -19 -235 q -12 -244 -22 -244 l 161 -244 q 168 -239 165 -244 l 353 456 q 346 464 356 464 l 222 464 q 215 460 217 464 m 242 567 l 396 567 q 403 572 400 567 l 457 753 q 450 761 460 761 l 296 761 q 289 756 292 761 l 235 575 q 242 567 232 567 z "},"¢":{"ha":503,"x_min":78,"x_max":735,"o":"m 333 176 q 328 175 329 176 l 326 174 l 329 174 q 306 168 315 168 q 281 190 281 168 q 288 229 281 201 l 447 760 q 473 810 458 797 q 507 824 488 824 q 526 817 518 824 q 535 800 535 811 q 532 788 535 799 l 489 639 q 496 631 486 631 l 668 631 q 675 636 672 631 l 717 776 q 735 886 735 839 q 705 976 735 944 q 608 1014 675 1007 l 635 1101 q 628 1110 638 1110 l 556 1110 q 549 1104 551 1110 l 522 1015 q 359 951 418 1007 q 268 779 300 894 l 99 215 q 78 101 78 149 q 119 4 78 35 q 251 -26 161 -26 l 265 -26 l 229 -133 q 236 -143 226 -143 l 308 -143 q 315 -139 313 -143 l 419 172 q 418 180 421 176 q 411 182 415 183 q 383 178 400 179 q 351 176 367 176 l 333 176 z "},"£":{"ha":474,"x_min":10,"x_max":683,"o":"m 481 378 q 488 383 485 378 l 518 486 q 511 494 521 494 l 407 494 l 407 639 q 408 691 407 671 q 415 728 410 711 l 415 726 q 479 797 439 797 q 507 754 507 797 q 501 719 507 738 l 489 676 q 496 668 486 668 l 640 668 q 647 674 644 668 l 661 725 q 683 854 683 797 q 539 988 683 988 q 354 928 428 988 q 246 751 281 868 q 228 658 235 711 q 222 556 222 604 q 222 522 222 538 q 225 494 222 507 l 160 494 q 153 489 156 494 l 124 386 q 131 378 121 378 l 481 378 m 121 -7 q 128 -3 125 -7 q 175 33 143 33 q 228 13 188 33 q 283 -12 260 -4 q 329 -19 306 -19 q 456 41 407 -19 q 536 204 506 101 q 529 213 539 213 l 428 213 q 421 208 422 213 l 418 200 q 407 177 413 186 q 394 168 401 168 q 349 186 385 168 l 350 186 q 326 198 342 192 q 291 209 310 204 q 253 217 272 214 q 218 219 233 219 q 188 214 197 219 l 189 215 q 82 152 124 208 q 13 1 40 96 q 19 -7 10 -7 l 121 -7 z "},"¤":{"ha":642,"x_min":143,"x_max":875,"o":"m 226 549 q 233 539 224 539 l 513 538 q 519 543 517 538 l 586 760 q 612 810 597 797 q 646 824 626 824 q 665 817 657 824 q 674 800 674 811 q 671 788 674 799 l 628 639 q 635 631 625 631 l 807 631 q 814 636 811 631 l 856 776 q 875 888 875 843 q 833 987 875 956 q 700 1018 790 1018 q 512 962 581 1018 q 407 779 443 906 l 374 671 l 271 671 q 264 667 265 671 l 226 549 m 200 482 q 193 478 194 482 l 146 349 q 153 339 143 339 l 274 339 l 238 215 q 217 101 217 149 q 258 4 217 35 q 390 -26 300 -26 l 407 -26 q 415 -26 411 -26 q 424 -25 419 -25 q 431 -19 428 -25 l 482 168 q 480 176 483 174 q 472 175 476 178 q 444 168 458 168 q 419 190 419 168 q 426 229 419 201 l 493 474 q 486 482 496 482 l 200 482 z "},"¥":{"ha":474,"x_min":140,"x_max":821,"o":"m 640 517 q 647 521 644 517 l 676 599 q 669 608 679 608 l 599 608 l 815 963 q 810 974 821 974 l 657 974 q 651 969 656 974 l 476 657 l 526 965 q 519 974 529 974 l 367 974 q 360 968 360 974 l 321 608 l 244 608 q 238 604 239 608 l 208 526 q 215 517 206 517 l 640 517 m 179 429 q 172 425 174 429 l 143 347 q 150 338 140 338 l 271 338 l 150 3 q 157 -7 147 -7 l 314 -7 q 321 -3 318 -7 l 444 338 l 575 338 q 582 342 579 338 l 611 419 q 604 429 614 429 l 179 429 z "},"¦":{"ha":247,"x_min":-18,"x_max":468,"o":"m 328 1056 l 185 569 q 192 561 182 561 l 317 561 q 324 567 321 561 l 465 1053 q 458 1061 468 1061 l 335 1061 q 328 1056 331 1061 m 125 361 l -15 -124 q -8 -132 -18 -132 l 115 -132 q 122 -126 119 -132 l 264 358 q 257 367 267 367 l 132 367 q 125 361 128 367 z "},"§":{"ha":535,"x_min":150,"x_max":767,"o":"m 718 721 q 725 725 722 721 l 744 778 q 767 886 767 839 q 628 993 767 993 q 462 936 531 993 q 349 758 393 879 q 328 653 328 701 l 328 644 q 342 592 329 606 q 247 526 288 575 q 171 378 206 476 q 150 272 150 319 q 164 204 150 235 q 197 156 178 174 q 249 113 217 138 q 293 74 278 90 q 308 39 308 58 q 303 11 308 26 q 240 -60 278 -60 l 208 -62 q 201 -68 201 -62 l 165 -219 q 172 -228 163 -228 l 183 -228 q 357 -170 288 -228 q 471 7 426 -112 q 488 69 483 43 q 493 117 493 96 q 488 153 493 139 q 475 175 482 168 q 523 196 501 182 q 565 234 544 210 q 602 294 585 258 q 638 379 619 329 q 661 496 661 444 q 647 565 661 535 q 613 617 633 597 q 561 657 592 636 q 517 691 532 676 q 503 725 503 706 q 508 751 503 736 q 572 825 536 825 q 593 801 593 825 q 588 774 593 789 l 574 731 q 581 721 571 721 l 718 721 m 372 296 q 329 328 329 296 q 342 379 329 346 q 382 449 360 428 q 440 469 404 469 q 483 439 483 469 q 469 385 483 424 q 431 317 453 338 q 372 296 408 296 z "},"¨":{"ha":535,"x_min":164,"x_max":665,"o":"m 381 1353 l 228 1353 q 221 1347 224 1353 l 167 1167 q 174 1158 164 1158 l 326 1158 q 333 1164 331 1158 l 388 1344 q 381 1353 390 1353 m 656 1351 l 503 1351 q 496 1346 499 1351 l 442 1165 q 449 1157 439 1157 l 601 1157 q 608 1163 606 1157 l 663 1343 q 656 1351 665 1351 z "},"©":{"ha":889,"x_min":126,"x_max":1050,"o":"m 175 525 l 299 525 q 306 529 303 525 q 377 674 333 608 q 474 785 421 739 q 587 858 528 832 q 704 885 646 885 q 851 819 796 885 q 906 642 906 753 q 903 594 906 618 q 894 542 900 569 q 901 533 892 533 l 1025 533 q 1032 539 1032 533 q 1050 683 1050 613 q 1027 825 1050 763 q 963 930 1004 888 q 864 995 921 972 q 739 1018 807 1018 q 572 985 657 1018 q 409 889 486 951 q 269 737 332 826 q 168 535 206 647 l 175 525 m 474 107 q 326 172 379 107 q 272 347 272 238 q 274 397 272 371 q 283 451 276 424 q 276 460 286 460 l 151 460 q 144 454 144 460 q 126 310 126 381 q 149 168 126 231 q 214 63 172 106 q 313 -3 256 19 q 439 -25 371 -25 l 443 -25 q 606 8 522 -25 q 767 102 690 40 q 906 251 843 164 q 1006 447 968 339 q 999 457 1008 457 l 875 457 q 868 453 869 457 q 794 313 839 376 q 697 203 750 249 q 587 132 644 157 q 474 107 529 107 m 493 668 l 388 319 l 388 321 q 375 250 375 281 q 486 167 375 167 l 494 167 q 500 167 497 167 q 506 168 503 168 q 513 174 510 168 l 544 289 q 542 297 546 294 q 533 296 538 299 q 518 293 529 293 q 506 304 506 293 q 510 326 506 311 l 610 656 q 624 684 617 676 q 643 692 632 692 q 658 678 658 692 q 658 674 658 675 q 657 672 657 674 l 629 582 q 636 574 626 574 l 742 574 q 749 579 746 574 l 775 665 l 775 664 q 784 701 782 683 q 786 735 786 719 q 760 798 786 778 q 676 818 735 818 q 558 783 600 818 q 493 668 517 747 z "},"«":{"ha":453,"x_min":146,"x_max":632,"o":"m 331 357 l 374 183 q 381 178 376 178 l 497 178 q 504 186 507 178 l 461 356 l 629 526 q 631 534 632 529 q 624 539 629 539 l 507 539 q 501 536 504 539 l 332 363 q 331 357 331 361 m 146 357 l 190 183 q 197 178 193 178 l 313 178 q 319 186 322 178 l 276 356 l 444 526 q 446 534 447 529 q 439 539 444 539 l 324 539 q 318 538 319 539 l 147 364 q 146 357 146 363 z "},"¬":{"ha":1060,"x_min":31,"x_max":1035,"o":"m 297 -58 q 303 -56 303 -58 l 344 51 l 408 51 l 390 -53 q 393 -58 388 -58 l 619 -57 q 720 -24 682 -57 q 776 74 758 8 l 806 164 q 814 214 814 194 q 776 269 814 256 q 837 315 815 285 q 868 381 858 346 l 883 433 q 892 490 892 464 q 868 547 892 532 l 883 604 q 881 608 885 608 l 774 608 l 815 753 l 919 753 q 924 758 924 753 l 956 867 q 953 872 958 872 l 853 872 l 886 989 l 996 989 q 999 992 999 989 l 1035 1104 q 1031 1110 1035 1110 l 811 1110 q 806 1106 806 1110 l 733 872 l 682 872 l 753 1104 q 753 1108 754 1106 q 747 1110 751 1110 l 379 1110 q 375 1107 378 1110 l 339 992 q 346 988 335 988 l 418 988 l 292 563 l 219 563 q 217 560 217 563 l 32 -50 q 35 -57 31 -57 l 297 -58 m 460 561 q 456 560 457 561 q 453 560 454 560 l 233 64 l 181 64 l 308 489 l 378 489 q 382 492 379 489 l 533 988 l 601 988 l 474 561 l 460 561 m 604 556 q 600 561 604 561 l 590 561 l 646 753 l 699 753 l 607 451 q 611 447 607 447 q 682 447 657 447 q 719 446 707 446 q 735 445 732 446 q 742 444 739 444 l 744 444 q 761 426 761 444 q 761 421 761 424 q 760 411 761 418 l 760 406 q 753 386 760 396 q 733 338 742 347 q 710 329 725 329 l 567 329 l 604 556 m 319 451 q 325 454 325 454 l 379 453 q 386 449 388 453 l 276 228 q 274 224 276 224 l 261 228 q 254 230 256 228 q 254 233 253 232 l 319 451 m 671 208 q 689 206 683 208 q 694 194 694 204 q 691 173 694 188 q 682 139 688 158 q 656 77 665 90 q 626 64 647 64 l 607 64 l 650 208 l 671 208 m 432 169 l 392 169 l 483 406 l 432 169 z "},"®":{"ha":889,"x_min":126,"x_max":1050,"o":"m 175 525 l 299 525 q 306 529 303 525 q 377 674 333 608 q 474 785 421 739 q 587 858 528 832 q 704 885 646 885 q 851 819 796 885 q 906 642 906 753 q 903 594 906 618 q 894 542 900 569 q 901 533 892 533 l 1025 533 q 1032 539 1032 533 q 1050 683 1050 613 q 1027 825 1050 763 q 963 930 1004 888 q 864 995 921 972 q 739 1018 807 1018 q 572 985 657 1018 q 409 889 486 951 q 269 737 332 826 q 168 535 206 647 l 175 525 m 474 107 q 326 172 379 107 q 272 347 272 238 q 274 397 272 371 q 283 451 276 424 q 276 460 286 460 l 151 460 q 144 454 144 460 q 126 310 126 381 q 149 168 126 231 q 214 63 172 106 q 313 -3 256 19 q 439 -25 371 -25 l 443 -25 q 606 8 522 -25 q 767 102 690 40 q 906 251 843 164 q 1006 447 968 339 q 999 457 1008 457 l 875 457 q 868 453 869 457 q 794 313 839 376 q 697 203 750 249 q 587 132 644 157 q 474 107 529 107 m 488 213 l 482 213 l 607 689 q 614 694 610 694 l 640 694 q 661 689 654 694 q 668 668 668 683 q 666 650 668 660 q 661 625 664 640 q 640 574 650 586 q 614 560 629 561 l 615 565 l 608 560 l 614 560 l 593 465 q 614 439 614 458 q 611 428 614 433 l 613 429 l 563 231 q 558 218 558 224 q 560 213 558 215 l 554 213 l 561 208 q 560 213 560 210 l 647 213 q 651 203 647 207 l 657 213 l 647 213 l 647 215 q 650 236 647 224 q 658 271 653 249 l 692 400 q 699 433 697 418 q 701 458 701 447 q 667 507 701 500 q 661 514 661 507 l 661 515 q 667 522 661 522 q 719 554 701 529 q 743 606 736 579 l 763 675 q 769 724 769 707 q 744 774 769 760 q 671 788 719 788 l 544 788 l 546 793 l 539 788 l 544 788 l 394 213 l 482 213 l 481 207 l 488 213 m 386 213 l 393 204 l 394 213 l 386 213 m 585 467 l 592 458 l 593 465 q 589 466 590 465 q 585 467 588 467 z "},"¯":{"ha":372,"x_min":100,"x_max":540,"o":"m 110 1218 l 472 1217 q 479 1221 475 1217 l 536 1344 q 529 1354 540 1354 l 167 1356 q 160 1351 164 1356 l 103 1228 q 103 1221 100 1224 q 110 1218 106 1218 z "},"°":{"ha":408,"x_min":247,"x_max":613,"o":"m 543 657 l 604 857 q 613 911 613 886 q 591 974 613 951 q 535 996 569 996 l 464 996 q 379 961 421 996 q 317 860 338 926 l 256 660 q 247 607 247 631 q 269 543 247 565 q 325 521 290 521 l 356 521 q 363 525 360 521 l 397 629 q 390 639 400 639 q 374 657 374 639 q 375 667 374 663 l 428 846 l 428 844 q 444 867 432 857 q 469 878 456 878 q 483 873 479 878 q 488 861 488 868 q 485 849 488 857 l 432 671 q 406 642 428 653 q 401 638 401 642 l 365 531 q 372 521 363 521 l 396 521 q 481 556 439 521 q 543 657 524 590 z "},"±":{"ha":708,"x_min":4,"x_max":806,"o":"m 181 696 l 132 540 q 139 532 129 532 l 367 532 l 286 260 q 293 251 283 251 l 426 251 q 433 257 431 251 l 515 532 l 747 532 q 754 538 751 532 l 803 693 q 796 701 806 701 l 563 701 q 560 702 561 701 q 558 703 560 703 l 425 703 q 423 702 424 703 q 421 701 422 701 l 188 701 q 181 696 183 701 m 629 38 l 676 193 q 669 201 679 201 l 61 201 q 54 196 57 201 l 7 40 q 14 32 4 32 l 622 32 q 629 38 626 32 m 575 718 l 650 974 q 643 982 653 982 l 510 982 q 503 976 506 982 l 428 721 q 435 713 425 713 l 568 713 q 575 718 572 713 z "},"´":{"ha":242,"x_min":231,"x_max":631,"o":"m 451 1354 l 233 1140 q 232 1133 231 1138 q 239 1128 233 1128 l 408 1129 l 628 1343 q 630 1351 631 1346 q 624 1356 629 1356 l 457 1356 q 451 1354 453 1356 z "},"µ":{"ha":474,"x_min":-58,"x_max":703,"o":"m 693 724 l 536 724 q 529 719 531 724 l 340 200 q 314 158 329 172 q 283 143 299 143 q 269 158 269 143 q 278 194 269 171 l 467 714 q 460 724 469 724 l 303 724 q 296 719 297 724 l -56 -246 q -49 -256 -58 -256 l 108 -256 q 115 -251 113 -256 l 200 -15 q 249 11 225 -7 q 292 53 272 29 l 274 3 q 281 -7 271 -7 l 432 -7 q 439 -3 436 -7 l 700 714 q 693 724 703 724 z "},"¶":{"ha":689,"x_min":214,"x_max":922,"o":"m 217 -247 q 224 -256 214 -256 l 347 -256 q 354 -250 351 -256 l 578 492 l 640 492 l 479 -49 q 486 -57 476 -57 l 608 -57 q 615 -51 613 -57 l 824 665 q 817 674 826 674 l 263 674 q 256 667 256 674 l 256 657 q 301 540 256 582 q 432 496 346 499 l 217 -247 m 869 821 q 863 829 872 829 l 307 829 q 301 825 306 829 q 283 785 290 806 q 269 744 276 764 l 269 747 q 268 739 268 744 q 267 737 268 738 q 267 735 267 736 q 274 728 267 728 l 836 728 q 843 733 840 728 l 869 821 m 364 896 l 886 896 q 893 901 890 896 l 919 990 q 913 999 922 999 l 608 999 q 358 907 447 999 l 364 896 z "},"·":{"ha":251,"x_min":178,"x_max":404,"o":"m 394 610 l 242 610 q 235 604 238 610 l 181 424 q 188 415 178 415 l 340 415 q 347 421 344 415 l 401 601 q 394 610 404 610 z "},"¸":{"ha":247,"x_min":-103,"x_max":194,"o":"m 101 4 l -4 -117 q -6 -124 -8 -121 l 6 -147 q 14 -151 8 -154 q 21 -150 19 -150 q 57 -144 42 -144 q 86 -165 86 -144 q 81 -187 86 -175 q 50 -224 71 -211 q 10 -236 29 -236 q -53 -218 -21 -236 q -62 -219 -60 -214 l -100 -274 q -99 -283 -103 -279 q 3 -311 -65 -311 q 114 -278 64 -311 q 185 -189 164 -246 q 192 -161 190 -175 q 194 -136 194 -147 q 178 -87 194 -104 q 129 -69 161 -69 l 106 -69 l 168 -4 q 169 3 171 -1 q 163 7 168 7 l 107 7 q 101 4 104 7 z "},"»":{"ha":453,"x_min":81,"x_max":568,"o":"m 515 539 l 400 539 q 393 531 390 539 l 436 361 l 268 190 q 267 183 265 188 q 274 178 268 178 l 389 178 q 394 179 393 178 l 567 353 q 568 360 568 354 l 522 533 q 515 539 519 539 m 331 539 l 215 539 q 208 531 206 539 l 253 361 l 83 190 q 82 183 81 188 q 89 178 83 178 l 204 178 q 210 179 208 178 l 382 353 q 383 360 383 354 l 338 533 q 331 539 335 539 z "},"¿":{"ha":464,"x_min":-39,"x_max":525,"o":"m 425 403 l 271 403 q 264 397 267 403 l 240 319 q 195 233 224 264 q 133 174 167 203 q 127 168 131 171 q 121 163 124 165 l 122 163 q 85 125 104 146 q 48 77 67 104 q 12 14 29 50 q -21 -72 -6 -22 q -39 -182 -39 -132 q 118 -322 -39 -322 q 213 -310 169 -322 q 290 -269 256 -297 q 351 -195 324 -242 q 397 -82 378 -149 l 397 -83 l 424 0 q 417 10 426 10 l 263 10 q 256 4 258 10 l 238 -58 l 238 -57 q 204 -132 221 -111 q 171 -153 188 -153 q 153 -126 153 -153 q 167 -62 153 -104 q 211 26 182 -10 q 275 94 240 63 q 343 165 311 129 q 392 254 375 201 l 432 394 q 425 403 435 403 m 307 508 l 461 508 q 468 514 465 508 l 522 694 q 515 703 525 703 l 361 703 q 354 697 357 703 l 300 517 q 307 508 297 508 z "},"À":{"ha":524,"x_min":-6,"x_max":778,"o":"m 4 -7 l 185 -7 q 192 -3 189 -7 l 260 168 l 365 168 l 335 1 q 342 -7 332 -7 l 519 -7 q 526 -1 526 -7 l 682 990 q 675 999 682 999 l 446 999 q 439 994 443 999 l -3 3 q -3 -4 -6 -1 q 4 -7 0 -7 m 560 1354 q 554 1356 558 1356 l 388 1356 q 381 1351 382 1356 q 382 1343 379 1346 l 596 1129 q 601 1128 597 1128 l 769 1128 q 776 1133 775 1128 q 775 1140 778 1138 l 560 1354 m 404 363 l 338 363 l 488 744 l 404 363 z "},"Á":{"ha":524,"x_min":-6,"x_max":786,"o":"m 4 -7 l 185 -7 q 192 -3 189 -7 l 260 168 l 365 168 l 335 1 q 342 -7 332 -7 l 519 -7 q 526 -1 526 -7 l 682 990 q 675 999 682 999 l 446 999 q 439 994 443 999 l -3 3 q -3 -4 -6 -1 q 4 -7 0 -7 m 607 1354 l 389 1140 q 388 1133 386 1138 q 394 1128 389 1128 l 564 1129 l 783 1343 q 785 1351 786 1346 q 779 1356 785 1356 l 613 1356 q 607 1354 608 1356 m 404 363 l 338 363 l 488 744 l 404 363 z "},"Â":{"ha":524,"x_min":-6,"x_max":797,"o":"m 4 -7 l 185 -7 q 192 -3 189 -7 l 260 168 l 365 168 l 335 1 q 342 -7 332 -7 l 519 -7 q 526 -1 526 -7 l 682 990 q 675 999 682 999 l 446 999 q 439 994 443 999 l -3 3 q -3 -4 -6 -1 q 4 -7 0 -7 m 347 1061 l 478 1061 q 483 1064 481 1061 l 626 1283 l 654 1081 q 661 1075 654 1075 l 790 1075 q 797 1083 797 1075 l 746 1458 q 739 1464 746 1464 l 621 1464 q 615 1461 618 1464 l 342 1072 q 341 1065 339 1068 q 347 1061 343 1061 m 404 363 l 338 363 l 488 744 l 404 363 z "},"Ã":{"ha":524,"x_min":-6,"x_max":779,"o":"m 4 -7 l 185 -7 q 192 -3 189 -7 l 260 168 l 365 168 l 335 1 q 342 -7 332 -7 l 519 -7 q 526 -1 526 -7 l 682 990 q 675 999 682 999 l 446 999 q 439 994 443 999 l -3 3 q -3 -4 -6 -1 q 4 -7 0 -7 m 775 1192 l 779 1289 q 774 1296 779 1294 q 767 1293 769 1297 q 714 1240 736 1258 q 672 1221 692 1221 q 649 1228 661 1221 q 619 1247 638 1235 l 606 1257 q 561 1283 582 1274 q 519 1292 540 1292 q 444 1266 479 1292 q 378 1197 408 1240 l 374 1101 q 378 1094 374 1096 q 386 1097 383 1093 q 438 1151 417 1132 q 479 1169 460 1169 q 533 1143 497 1169 l 547 1133 q 592 1108 571 1117 q 632 1099 613 1099 q 708 1124 672 1099 q 775 1192 743 1150 m 404 363 l 338 363 l 488 744 l 404 363 z "},"Ä":{"ha":524,"x_min":-6,"x_max":853,"o":"m 4 -7 l 185 -7 q 192 -3 189 -7 l 260 168 l 365 168 l 335 1 q 342 -7 332 -7 l 519 -7 q 526 -1 526 -7 l 682 990 q 675 999 682 999 l 446 999 q 439 994 443 999 l -3 3 q -3 -4 -6 -1 q 4 -7 0 -7 m 843 1350 l 690 1350 q 683 1344 686 1350 l 629 1164 q 636 1156 626 1156 l 789 1156 q 796 1161 793 1156 l 850 1342 q 843 1350 853 1350 m 568 1351 l 415 1351 q 408 1346 411 1351 l 354 1165 q 361 1157 351 1157 l 514 1157 q 521 1163 518 1157 l 575 1343 q 568 1351 578 1351 m 404 363 l 338 363 l 488 744 l 404 363 z "},"Å":{"ha":524,"x_min":-6,"x_max":818,"o":"m 749 1122 l 810 1322 q 818 1376 818 1351 q 797 1439 818 1417 q 740 1461 775 1461 l 669 1461 q 585 1426 626 1461 q 522 1325 543 1392 l 461 1125 q 453 1072 453 1096 q 486 999 453 1021 l 446 999 q 439 994 443 999 l -3 3 q -3 -4 -6 -1 q 4 -7 0 -7 l 185 -7 q 192 -3 189 -7 l 260 168 l 365 168 l 335 1 q 342 -7 332 -7 l 519 -7 q 526 -1 526 -7 l 682 990 q 675 999 682 999 l 653 999 q 709 1044 683 1014 q 749 1122 735 1075 m 571 999 l 603 1094 q 596 1104 606 1104 q 579 1122 579 1104 q 581 1132 579 1128 l 633 1311 l 633 1310 q 649 1333 638 1322 q 675 1343 661 1343 q 689 1338 685 1343 q 693 1326 693 1333 q 690 1314 693 1322 l 638 1136 q 611 1107 633 1118 q 607 1103 607 1107 l 571 999 m 404 363 l 338 363 l 488 744 l 404 363 z "},"Æ":{"ha":700,"x_min":-8,"x_max":953,"o":"m 332 -7 l 663 -7 q 669 -1 667 -7 l 721 179 q 714 188 724 188 l 551 188 l 619 421 l 776 421 q 783 426 781 421 l 833 607 q 826 615 836 615 l 672 615 l 726 804 l 892 804 q 899 810 896 804 l 950 990 q 943 999 953 999 l 504 999 q 499 994 503 999 l -3 3 q 3 -7 -8 -7 l 171 -7 q 178 -3 174 -7 l 258 167 l 371 167 l 325 1 q 332 -7 322 -7 m 424 361 l 347 361 l 542 774 l 424 361 z "},"Ç":{"ha":503,"x_min":18,"x_max":736,"o":"m 268 779 l 99 215 q 78 101 78 149 q 181 -19 78 1 l 117 -93 q 115 -100 113 -97 l 126 -124 q 135 -128 129 -131 q 142 -126 140 -126 q 178 -121 163 -121 q 207 -142 207 -121 q 201 -164 207 -151 q 171 -200 192 -187 q 131 -212 150 -212 q 68 -194 100 -212 q 58 -196 61 -190 l 21 -250 q 22 -260 18 -256 q 124 -287 56 -287 q 235 -255 185 -287 q 306 -165 285 -222 q 313 -137 311 -151 q 315 -112 315 -124 q 299 -63 315 -81 q 250 -46 282 -46 l 226 -46 l 246 -26 l 268 -26 q 276 -26 272 -26 q 285 -25 281 -25 q 292 -19 289 -25 l 343 168 q 341 176 344 174 q 333 175 338 178 q 306 168 319 168 q 281 190 281 168 q 288 229 281 201 l 447 760 q 473 810 458 797 q 507 824 488 824 q 526 817 518 824 q 535 800 535 811 q 532 788 535 799 l 489 639 q 496 631 486 631 l 668 631 q 675 636 672 631 l 717 776 q 736 888 736 843 q 694 987 736 956 q 561 1018 651 1018 q 373 962 442 1018 q 268 779 304 906 z "},"È":{"ha":436,"x_min":51,"x_max":760,"o":"m 357 990 l 350 985 l 356 985 l 61 7 l 400 7 l 399 1 l 406 7 l 400 7 l 450 174 l 278 174 q 271 182 268 174 l 344 429 q 351 435 347 435 l 519 435 l 518 429 l 525 435 l 519 435 l 571 601 l 407 601 q 400 610 397 601 l 460 813 q 467 818 463 818 l 643 818 l 694 985 l 356 985 l 357 990 m 542 1354 q 536 1356 540 1356 l 369 1356 q 363 1351 364 1356 q 364 1343 361 1346 l 578 1129 q 583 1128 579 1128 l 751 1128 q 758 1133 757 1128 q 757 1140 760 1138 l 542 1354 m 704 985 l 697 993 l 694 985 l 704 985 m 58 -1 l 61 7 l 51 7 l 58 -1 m 581 601 l 574 610 l 571 601 l 581 601 m 460 174 l 453 182 l 450 174 l 460 174 m 649 818 l 643 818 l 642 813 l 649 818 z "},"É":{"ha":436,"x_min":42,"x_max":785,"o":"m 343 993 l 44 1 q 51 -7 42 -7 l 406 -7 q 413 -1 410 -7 l 467 179 q 460 188 469 188 l 288 188 l 357 421 l 525 421 q 532 426 529 421 l 588 607 q 581 615 590 615 l 417 615 l 472 804 l 649 804 q 656 810 653 804 l 711 990 q 704 999 714 999 l 350 999 q 343 993 346 999 m 606 1354 l 388 1140 q 386 1133 385 1138 q 393 1128 388 1128 l 563 1129 l 782 1343 q 784 1351 785 1346 q 778 1356 783 1356 l 611 1356 q 606 1354 607 1356 z "},"Ê":{"ha":436,"x_min":42,"x_max":765,"o":"m 343 993 l 44 1 q 51 -7 42 -7 l 406 -7 q 413 -1 410 -7 l 467 179 q 460 188 469 188 l 288 188 l 357 421 l 525 421 q 532 426 529 421 l 588 607 q 581 615 590 615 l 417 615 l 472 804 l 649 804 q 656 810 653 804 l 711 990 q 704 999 714 999 l 350 999 q 343 993 346 999 m 315 1063 l 446 1063 q 451 1065 449 1063 l 594 1285 l 622 1082 q 629 1076 622 1076 l 758 1076 q 765 1085 765 1076 l 714 1460 q 707 1465 714 1465 l 589 1465 q 583 1463 586 1465 l 310 1074 q 309 1066 307 1069 q 315 1063 311 1063 z "},"Ë":{"ha":436,"x_min":42,"x_max":832,"o":"m 343 993 l 44 1 q 51 -7 42 -7 l 406 -7 q 413 -1 410 -7 l 467 179 q 460 188 469 188 l 288 188 l 357 421 l 525 421 q 532 426 529 421 l 588 607 q 581 615 590 615 l 417 615 l 472 804 l 649 804 q 656 810 653 804 l 711 990 q 704 999 714 999 l 350 999 q 343 993 346 999 m 822 1353 l 669 1353 q 663 1347 665 1353 l 608 1167 q 615 1158 606 1158 l 768 1158 q 775 1164 772 1158 l 829 1344 q 822 1353 832 1353 m 547 1354 l 394 1354 q 388 1349 390 1354 l 333 1168 q 340 1160 331 1160 l 493 1160 q 500 1165 497 1160 l 554 1346 q 547 1354 557 1354 z "},"Ì":{"ha":285,"x_min":47,"x_max":685,"o":"m 57 -7 l 229 -7 q 236 -1 233 -7 l 535 990 q 528 999 538 999 l 356 999 q 349 993 351 999 l 50 1 q 57 -7 47 -7 m 467 1354 q 461 1356 465 1356 l 294 1356 q 288 1351 289 1356 q 289 1343 286 1346 l 503 1129 q 508 1128 504 1128 l 676 1128 q 683 1133 682 1128 q 682 1140 685 1138 l 467 1354 z "},"Í":{"ha":285,"x_min":47,"x_max":693,"o":"m 57 -7 l 229 -7 q 236 -1 233 -7 l 535 990 q 528 999 538 999 l 356 999 q 349 993 351 999 l 50 1 q 57 -7 47 -7 m 514 1354 l 296 1140 q 294 1133 293 1138 q 301 1128 296 1128 l 471 1129 l 690 1343 q 692 1351 693 1346 q 686 1356 692 1356 l 519 1356 q 514 1354 515 1356 z "},"Î":{"ha":285,"x_min":47,"x_max":683,"o":"m 57 -7 l 229 -7 q 236 -1 233 -7 l 535 990 q 528 999 538 999 l 356 999 q 349 993 351 999 l 50 1 q 57 -7 47 -7 m 233 1063 l 364 1063 q 369 1065 367 1063 l 513 1285 l 540 1082 q 547 1076 540 1076 l 676 1076 q 683 1085 683 1076 l 632 1460 q 625 1465 632 1465 l 507 1465 q 501 1463 504 1465 l 228 1074 q 227 1066 225 1069 q 233 1063 229 1063 z "},"Ï":{"ha":285,"x_min":47,"x_max":740,"o":"m 57 -7 l 229 -7 q 236 -1 233 -7 l 535 990 q 528 999 538 999 l 356 999 q 349 993 351 999 l 50 1 q 57 -7 47 -7 m 456 1354 l 303 1354 q 296 1349 299 1354 l 242 1168 q 249 1160 239 1160 l 401 1160 q 408 1165 406 1160 l 463 1346 q 456 1354 465 1354 m 731 1353 l 578 1353 q 571 1347 574 1353 l 517 1167 q 524 1158 514 1158 l 676 1158 q 683 1164 681 1158 l 738 1344 q 731 1353 740 1353 z "},"Ð":{"ha":524,"x_min":76,"x_max":743,"o":"m 299 806 l 497 804 q 535 778 535 804 q 533 763 535 768 q 522 706 531 739 q 493 615 513 674 q 450 478 476 561 q 388 268 424 396 l 388 269 q 362 211 374 229 q 333 189 350 193 q 328 185 328 189 l 257 3 q 264 -7 254 -7 q 368 3 322 -7 q 450 41 414 14 q 514 115 486 68 q 564 232 542 161 l 721 757 q 738 822 732 793 q 743 875 743 851 q 697 973 743 947 q 563 999 650 999 l 350 999 q 343 993 346 999 l 292 814 q 299 806 289 806 m 86 435 l 358 435 q 365 440 363 435 l 415 607 q 408 615 418 615 l 136 615 q 129 610 132 615 l 79 443 q 86 435 76 435 z "},"Ñ":{"ha":633,"x_min":42,"x_max":890,"o":"m 517 349 l 576 992 q 569 999 576 999 l 350 999 q 343 993 346 999 l 44 1 q 51 -7 42 -7 l 215 -7 q 222 -1 219 -7 l 413 632 l 358 0 q 365 -7 358 -7 l 582 -7 q 589 -1 586 -7 l 888 990 q 881 999 890 999 l 718 999 q 711 993 714 999 l 517 349 m 821 1193 l 825 1290 q 820 1297 825 1296 q 813 1294 815 1299 q 760 1241 782 1260 q 718 1222 738 1222 q 695 1229 707 1222 q 665 1249 683 1236 l 651 1258 q 607 1284 628 1275 q 565 1293 586 1293 q 490 1267 525 1293 q 424 1199 454 1242 l 419 1103 q 424 1096 419 1097 q 432 1099 429 1094 q 484 1152 463 1133 q 525 1171 506 1171 q 579 1144 543 1171 l 593 1135 q 638 1109 617 1118 q 678 1100 658 1100 q 753 1126 718 1100 q 821 1193 789 1151 z "},"Ò":{"ha":524,"x_min":76,"x_max":776,"o":"m 268 779 l 99 215 q 82 150 88 179 q 76 97 76 121 q 123 -1 76 25 q 257 -26 169 -26 q 360 -16 314 -26 q 442 22 406 -6 q 506 95 478 49 q 556 213 533 142 l 725 776 q 746 894 746 847 q 700 992 746 967 q 567 1018 654 1018 q 463 1008 508 1018 q 382 970 418 997 q 318 897 346 943 q 268 779 290 850 m 285 214 l 454 775 q 513 824 465 824 q 543 801 543 824 q 539 778 543 792 l 369 217 l 369 218 q 347 179 360 190 q 311 168 335 168 q 279 189 279 168 q 281 199 279 192 q 285 214 282 206 m 558 1351 q 553 1353 557 1353 l 386 1353 q 379 1348 381 1353 q 381 1340 378 1343 l 594 1126 q 600 1125 596 1125 l 768 1125 q 775 1130 774 1125 q 774 1138 776 1135 l 558 1351 z "},"Ó":{"ha":524,"x_min":76,"x_max":817,"o":"m 268 779 l 99 215 q 82 150 88 179 q 76 97 76 121 q 123 -1 76 25 q 257 -26 169 -26 q 360 -16 314 -26 q 442 22 406 -6 q 506 95 478 49 q 556 213 533 142 l 725 776 q 746 894 746 847 q 700 992 746 967 q 567 1018 654 1018 q 463 1008 508 1018 q 382 970 418 997 q 318 897 346 943 q 268 779 290 850 m 285 214 l 454 775 q 513 824 465 824 q 543 801 543 824 q 539 778 543 792 l 369 217 l 369 218 q 347 179 360 190 q 311 168 335 168 q 279 189 279 168 q 281 199 279 192 q 285 214 282 206 m 638 1354 l 419 1140 q 418 1133 417 1138 q 425 1128 419 1128 l 594 1129 l 814 1343 q 816 1351 817 1346 q 810 1356 815 1356 l 643 1356 q 638 1354 639 1356 z "},"Ô":{"ha":524,"x_min":76,"x_max":797,"o":"m 268 779 l 99 215 q 82 150 88 179 q 76 97 76 121 q 123 -1 76 25 q 257 -26 169 -26 q 360 -16 314 -26 q 442 22 406 -6 q 506 95 478 49 q 556 213 533 142 l 725 776 q 746 894 746 847 q 700 992 746 967 q 567 1018 654 1018 q 463 1008 508 1018 q 382 970 418 997 q 318 897 346 943 q 268 779 290 850 m 347 1063 l 478 1063 q 483 1065 481 1063 l 626 1285 l 654 1082 q 661 1076 654 1076 l 790 1076 q 797 1085 797 1076 l 746 1460 q 739 1465 746 1465 l 621 1465 q 615 1463 618 1465 l 342 1074 q 341 1066 339 1069 q 347 1063 343 1063 m 285 214 l 454 775 q 513 824 465 824 q 543 801 543 824 q 539 778 543 792 l 369 217 l 369 218 q 347 179 360 190 q 311 168 335 168 q 279 189 279 168 q 281 199 279 192 q 285 214 282 206 z "},"Õ":{"ha":524,"x_min":76,"x_max":781,"o":"m 268 779 l 99 215 q 82 150 88 179 q 76 97 76 121 q 123 -1 76 25 q 257 -26 169 -26 q 360 -16 314 -26 q 442 22 406 -6 q 506 95 478 49 q 556 213 533 142 l 725 776 q 746 894 746 847 q 700 992 746 967 q 567 1018 654 1018 q 463 1008 508 1018 q 382 970 418 997 q 318 897 346 943 q 268 779 290 850 m 285 214 l 454 775 q 513 824 465 824 q 543 801 543 824 q 539 778 543 792 l 369 217 l 369 218 q 347 179 360 190 q 311 168 335 168 q 279 189 279 168 q 281 199 279 192 q 285 214 282 206 m 776 1193 l 781 1290 q 776 1297 781 1296 q 768 1294 771 1299 q 715 1241 738 1260 q 674 1222 693 1222 q 651 1229 663 1222 q 621 1249 639 1236 l 607 1258 q 563 1284 583 1275 q 521 1293 542 1293 q 445 1267 481 1293 q 379 1199 410 1242 l 375 1103 q 380 1096 375 1097 q 388 1099 385 1094 q 440 1152 418 1133 q 481 1171 461 1171 q 535 1144 499 1171 l 549 1135 q 593 1109 572 1118 q 633 1100 614 1100 q 709 1126 674 1100 q 776 1193 744 1151 z "},"Ö":{"ha":524,"x_min":76,"x_max":868,"o":"m 268 779 l 99 215 q 82 150 88 179 q 76 97 76 121 q 123 -1 76 25 q 257 -26 169 -26 q 360 -16 314 -26 q 442 22 406 -6 q 506 95 478 49 q 556 213 533 142 l 725 776 q 746 894 746 847 q 700 992 746 967 q 567 1018 654 1018 q 463 1008 508 1018 q 382 970 418 997 q 318 897 346 943 q 268 779 290 850 m 285 214 l 454 775 q 513 824 465 824 q 543 801 543 824 q 539 778 543 792 l 369 217 l 369 218 q 347 179 360 190 q 311 168 335 168 q 279 189 279 168 q 281 199 279 192 q 285 214 282 206 m 583 1353 l 431 1353 q 424 1347 426 1353 l 369 1167 q 376 1158 367 1158 l 529 1158 q 536 1164 533 1158 l 590 1344 q 583 1353 593 1353 m 858 1351 l 706 1351 q 699 1346 701 1351 l 644 1165 q 651 1157 642 1157 l 804 1157 q 811 1163 808 1157 l 865 1343 q 858 1351 868 1351 z "},"×":{"ha":667,"x_min":78,"x_max":850,"o":"m 464 146 q 475 143 467 138 l 596 250 q 599 258 600 254 l 557 361 l 846 606 q 849 614 850 610 l 804 719 q 793 722 801 728 l 506 475 l 399 719 q 388 722 396 728 l 265 617 q 263 608 261 613 l 371 360 l 82 111 q 79 103 78 107 l 124 -3 q 135 -6 126 -11 l 422 240 l 464 146 m 529 -3 q 540 -6 532 -11 l 663 100 q 665 108 667 104 l 617 222 q 606 225 614 231 l 483 115 q 481 107 479 111 l 529 -3 z "},"Ø":{"ha":524,"x_min":76,"x_max":746,"o":"m 631 1121 q 624 1129 633 1129 l 582 1129 q 575 1124 578 1129 l 542 1018 q 447 1003 489 1015 q 372 964 406 992 q 314 891 339 936 q 268 779 289 846 l 99 215 l 99 217 q 76 97 76 149 q 114 5 76 32 q 225 -25 151 -22 l 186 -154 q 193 -162 183 -162 l 233 -162 q 240 -157 238 -162 l 281 -26 q 374 -12 332 -25 q 449 27 415 0 q 508 99 482 54 q 556 213 535 144 l 725 776 q 746 894 746 847 q 708 988 746 961 q 599 1017 669 1014 l 631 1121 m 285 214 l 454 775 q 482 818 463 808 l 286 172 q 279 188 279 178 q 285 213 279 197 l 285 214 m 543 801 q 539 778 543 792 l 369 217 l 369 218 q 342 175 357 185 l 538 817 q 543 801 543 808 z "},"Ù":{"ha":524,"x_min":76,"x_max":792,"o":"m 556 213 l 789 990 q 782 999 792 999 l 610 999 q 603 993 606 999 l 378 246 q 349 183 363 197 q 311 168 335 168 q 289 172 296 168 q 282 190 282 176 q 293 243 282 206 l 518 990 q 511 999 521 999 l 339 999 q 332 993 335 999 l 99 215 q 82 150 88 179 q 76 97 76 121 q 123 -1 76 25 q 257 -26 169 -26 q 360 -16 314 -26 q 442 22 406 -6 q 506 95 478 49 q 556 213 533 142 m 538 1354 q 532 1356 536 1356 l 365 1356 q 358 1351 360 1356 q 360 1343 357 1346 l 574 1129 q 579 1128 575 1128 l 747 1128 q 754 1133 753 1128 q 753 1140 756 1138 l 538 1354 z "},"Ú":{"ha":524,"x_min":76,"x_max":808,"o":"m 556 213 l 789 990 q 782 999 792 999 l 610 999 q 603 993 606 999 l 378 246 q 349 183 363 197 q 311 168 335 168 q 289 172 296 168 q 282 190 282 176 q 293 243 282 206 l 518 990 q 511 999 521 999 l 339 999 q 332 993 335 999 l 99 215 q 82 150 88 179 q 76 97 76 121 q 123 -1 76 25 q 257 -26 169 -26 q 360 -16 314 -26 q 442 22 406 -6 q 506 95 478 49 q 556 213 533 142 m 629 1353 l 411 1139 q 410 1131 408 1136 q 417 1126 411 1126 l 586 1128 l 806 1342 q 808 1349 808 1344 q 801 1354 807 1354 l 635 1354 q 629 1353 631 1354 z "},"Û":{"ha":524,"x_min":76,"x_max":800,"o":"m 556 213 l 789 990 q 782 999 792 999 l 610 999 q 603 993 606 999 l 378 246 q 349 183 363 197 q 311 168 335 168 q 289 172 296 168 q 282 190 282 176 q 293 243 282 206 l 518 990 q 511 999 521 999 l 339 999 q 332 993 335 999 l 99 215 q 82 150 88 179 q 76 97 76 121 q 123 -1 76 25 q 257 -26 169 -26 q 360 -16 314 -26 q 442 22 406 -6 q 506 95 478 49 q 556 213 533 142 m 350 1063 l 481 1063 q 486 1065 483 1063 l 629 1285 l 657 1082 q 664 1076 657 1076 l 793 1076 q 800 1085 800 1076 l 749 1460 q 742 1465 749 1465 l 624 1465 q 618 1463 621 1465 l 344 1074 q 344 1066 342 1069 q 350 1063 346 1063 z "},"Ü":{"ha":524,"x_min":76,"x_max":864,"o":"m 556 213 l 789 990 q 782 999 792 999 l 610 999 q 603 993 606 999 l 378 246 q 349 183 363 197 q 311 168 335 168 q 289 172 296 168 q 282 190 282 176 q 293 243 282 206 l 518 990 q 511 999 521 999 l 339 999 q 332 993 335 999 l 99 215 q 82 150 88 179 q 76 97 76 121 q 123 -1 76 25 q 257 -26 169 -26 q 360 -16 314 -26 q 442 22 406 -6 q 506 95 478 49 q 556 213 533 142 m 854 1357 l 701 1357 q 694 1351 697 1357 l 640 1171 q 647 1163 638 1163 l 800 1163 q 807 1168 804 1163 l 861 1349 q 854 1357 864 1357 m 579 1358 l 426 1358 q 419 1353 422 1358 l 365 1172 q 372 1164 363 1164 l 525 1164 q 532 1169 529 1164 l 586 1350 q 579 1358 589 1358 z "},"Ý":{"ha":547,"x_min":176,"x_max":851,"o":"m 471 657 l 490 992 q 483 999 490 999 l 303 999 q 296 992 296 999 l 293 379 l 179 1 q 186 -7 176 -7 l 358 -7 q 365 -1 363 -7 l 479 375 l 846 988 q 840 999 851 999 l 660 999 q 654 994 658 999 l 471 657 m 647 1354 l 429 1140 q 428 1133 426 1138 q 435 1128 429 1128 l 604 1129 l 824 1343 q 826 1351 826 1346 q 819 1356 825 1356 l 653 1356 q 647 1354 649 1356 z "},"Þ":{"ha":474,"x_min":39,"x_max":654,"o":"m 264 151 l 296 151 q 401 162 357 151 q 478 199 446 172 q 534 270 511 225 q 576 383 557 315 l 632 572 q 649 640 643 610 q 654 694 654 669 q 613 783 654 760 q 482 807 572 807 l 453 807 l 507 990 q 500 999 510 999 l 338 999 q 331 993 333 999 l 42 1 q 49 -7 39 -7 l 211 -7 q 218 -1 215 -7 l 264 151 m 397 613 l 417 613 q 450 593 447 613 l 450 586 q 429 481 450 557 q 405 408 415 436 q 385 368 394 379 q 335 346 368 346 l 319 346 l 397 613 z "},"ß":{"ha":474,"x_min":31,"x_max":679,"o":"m 250 747 q 257 739 247 739 l 414 739 q 421 743 418 739 l 428 764 q 494 843 450 843 q 526 833 507 843 q 544 788 544 824 q 540 750 544 772 q 522 697 535 728 q 501 652 515 681 q 469 596 486 624 q 434 548 451 568 q 404 528 417 528 q 397 522 400 528 l 349 353 q 356 344 346 344 l 374 344 q 382 332 382 344 q 376 306 382 321 l 293 22 q 264 -19 282 -19 l 244 -19 q 238 -25 240 -19 l 188 -200 q 194 -208 185 -208 l 286 -208 q 384 -158 340 -208 q 454 -21 428 -108 l 543 286 q 554 354 554 326 q 490 444 554 429 q 547 490 519 458 q 597 563 574 522 q 637 646 619 603 q 665 725 654 689 q 679 826 679 772 q 670 900 679 865 q 643 961 661 935 q 598 1003 625 988 q 535 1018 571 1018 q 441 1001 485 1018 q 363 953 397 983 q 302 881 328 922 q 263 790 276 839 l 250 747 m 197 -7 q 204 -1 201 -7 l 397 663 q 390 671 400 671 l 233 671 q 226 665 229 671 l 33 1 q 40 -7 31 -7 l 197 -7 z "},"à":{"ha":524,"x_min":4,"x_max":778,"o":"m 453 989 l 446 985 l 450 985 l 15 7 l 179 7 l 178 3 l 185 7 l 179 7 l 247 178 q 254 182 249 182 l 374 182 q 381 174 383 182 l 350 7 l 513 7 l 667 985 l 450 985 l 453 989 m 560 1354 q 554 1356 558 1356 l 388 1356 q 381 1351 382 1356 q 382 1343 379 1346 l 596 1129 q 601 1128 597 1128 l 769 1128 q 776 1133 775 1128 q 775 1140 778 1138 l 560 1354 m 319 358 l 504 828 q 511 832 506 832 l 513 832 q 519 824 522 832 l 417 354 q 410 349 417 349 l 326 349 q 319 358 317 349 m 4 7 l 11 -3 l 15 7 l 4 7 m 675 985 l 668 993 l 667 985 l 675 985 m 349 -1 l 350 7 l 342 7 l 349 -1 m 519 7 l 513 7 l 513 1 l 519 7 z "},"á":{"ha":524,"x_min":-6,"x_max":786,"o":"m 4 -7 l 185 -7 q 192 -3 189 -7 l 260 168 l 365 168 l 335 1 q 342 -7 332 -7 l 519 -7 q 526 -1 526 -7 l 682 990 q 675 999 682 999 l 446 999 q 439 994 443 999 l -3 3 q -3 -4 -6 -1 q 4 -7 0 -7 m 607 1354 l 389 1140 q 388 1133 386 1138 q 394 1128 389 1128 l 564 1129 l 783 1343 q 785 1351 786 1346 q 779 1356 785 1356 l 613 1356 q 607 1354 608 1356 m 404 363 l 338 363 l 488 744 l 404 363 z "},"â":{"ha":524,"x_min":-6,"x_max":797,"o":"m 4 -7 l 185 -7 q 192 -3 189 -7 l 260 168 l 365 168 l 335 1 q 342 -7 332 -7 l 519 -7 q 526 -1 526 -7 l 682 990 q 675 999 682 999 l 446 999 q 439 994 443 999 l -3 3 q -3 -4 -6 -1 q 4 -7 0 -7 m 347 1061 l 478 1061 q 483 1064 481 1061 l 626 1283 l 654 1081 q 661 1075 654 1075 l 790 1075 q 797 1083 797 1075 l 746 1458 q 739 1464 746 1464 l 621 1464 q 615 1461 618 1464 l 342 1072 q 341 1065 339 1068 q 347 1061 343 1061 m 404 363 l 338 363 l 488 744 l 404 363 z "},"ã":{"ha":524,"x_min":-6,"x_max":779,"o":"m 4 -7 l 185 -7 q 192 -3 189 -7 l 260 168 l 365 168 l 335 1 q 342 -7 332 -7 l 519 -7 q 526 -1 526 -7 l 682 990 q 675 999 682 999 l 446 999 q 439 994 443 999 l -3 3 q -3 -4 -6 -1 q 4 -7 0 -7 m 775 1192 l 779 1289 q 774 1296 779 1294 q 767 1293 769 1297 q 714 1240 736 1258 q 672 1221 692 1221 q 649 1228 661 1221 q 619 1247 638 1235 l 606 1257 q 561 1283 582 1274 q 519 1292 540 1292 q 444 1266 479 1292 q 378 1197 408 1240 l 374 1101 q 378 1094 374 1096 q 386 1097 383 1093 q 438 1151 417 1132 q 479 1169 460 1169 q 533 1143 497 1169 l 547 1133 q 592 1108 571 1117 q 632 1099 613 1099 q 708 1124 672 1099 q 775 1192 743 1150 m 404 363 l 338 363 l 488 744 l 404 363 z "},"ä":{"ha":524,"x_min":-6,"x_max":853,"o":"m 4 -7 l 185 -7 q 192 -3 189 -7 l 260 168 l 365 168 l 335 1 q 342 -7 332 -7 l 519 -7 q 526 -1 526 -7 l 682 990 q 675 999 682 999 l 446 999 q 439 994 443 999 l -3 3 q -3 -4 -6 -1 q 4 -7 0 -7 m 843 1350 l 690 1350 q 683 1344 686 1350 l 629 1164 q 636 1156 626 1156 l 789 1156 q 796 1161 793 1156 l 850 1342 q 843 1350 853 1350 m 568 1351 l 415 1351 q 408 1346 411 1351 l 354 1165 q 361 1157 351 1157 l 514 1157 q 521 1163 518 1157 l 575 1343 q 568 1351 578 1351 m 404 363 l 338 363 l 488 744 l 404 363 z "},"å":{"ha":524,"x_min":-6,"x_max":818,"o":"m 4 -7 l 185 -7 q 192 -3 189 -7 l 260 168 l 365 168 l 335 1 q 342 -7 332 -7 l 519 -7 q 526 -1 526 -7 l 682 990 q 675 999 682 999 l 653 999 q 709 1044 683 1014 q 749 1122 735 1075 l 810 1322 q 818 1376 818 1351 q 797 1439 818 1417 q 740 1461 775 1461 l 669 1461 q 585 1426 626 1461 q 522 1325 543 1392 l 461 1125 q 453 1072 453 1096 q 486 999 453 1021 l 446 999 q 439 994 443 999 l -3 3 q -3 -4 -6 -1 q 4 -7 0 -7 m 571 999 l 603 1094 q 596 1104 606 1104 q 579 1122 579 1104 q 581 1132 579 1128 l 633 1311 l 633 1310 q 649 1333 638 1322 q 675 1343 661 1343 q 689 1338 685 1343 q 693 1326 693 1333 q 690 1314 693 1322 l 638 1136 q 611 1107 633 1118 q 607 1103 607 1107 l 571 999 m 404 363 l 338 363 l 488 744 l 404 363 z "},"æ":{"ha":700,"x_min":-8,"x_max":953,"o":"m 332 -7 l 663 -7 q 669 -1 667 -7 l 721 179 q 714 188 724 188 l 551 188 l 619 421 l 776 421 q 783 426 781 421 l 833 607 q 826 615 836 615 l 672 615 l 726 804 l 892 804 q 899 810 896 804 l 950 990 q 943 999 953 999 l 504 999 q 499 994 503 999 l -3 3 q 3 -7 -8 -7 l 171 -7 q 178 -3 174 -7 l 258 167 l 371 167 l 325 1 q 332 -7 322 -7 m 424 361 l 347 361 l 542 774 l 424 361 z "},"ç":{"ha":503,"x_min":18,"x_max":736,"o":"m 268 779 l 99 215 q 78 101 78 149 q 181 -19 78 1 l 117 -93 q 115 -100 113 -97 l 126 -124 q 135 -128 129 -131 q 142 -126 140 -126 q 178 -121 163 -121 q 207 -142 207 -121 q 201 -164 207 -151 q 171 -200 192 -187 q 131 -212 150 -212 q 68 -194 100 -212 q 58 -196 61 -190 l 21 -250 q 22 -260 18 -256 q 124 -287 56 -287 q 235 -255 185 -287 q 306 -165 285 -222 q 313 -137 311 -151 q 315 -112 315 -124 q 299 -63 315 -81 q 250 -46 282 -46 l 226 -46 l 244 -26 l 251 -26 l 268 -26 q 276 -26 272 -26 q 285 -25 281 -25 q 292 -19 289 -25 l 343 168 q 341 176 344 174 q 333 175 338 178 q 306 168 319 168 q 281 190 281 168 q 288 229 281 201 l 447 760 q 473 810 458 797 q 507 824 488 824 q 526 817 518 824 q 535 800 535 811 q 532 788 535 799 l 489 639 q 496 631 486 631 l 668 631 q 675 636 672 631 l 717 776 q 736 888 736 843 q 694 987 736 956 q 561 1018 651 1018 q 373 962 442 1018 q 268 779 304 906 z "},"è":{"ha":436,"x_min":42,"x_max":760,"o":"m 343 993 l 44 1 q 51 -7 42 -7 l 406 -7 q 413 -1 410 -7 l 467 179 q 460 188 469 188 l 288 188 l 357 421 l 525 421 q 532 426 529 421 l 588 607 q 581 615 590 615 l 417 615 l 472 804 l 649 804 q 656 810 653 804 l 711 990 q 704 999 714 999 l 350 999 q 343 993 346 999 m 542 1354 q 536 1356 540 1356 l 369 1356 q 363 1351 364 1356 q 364 1343 361 1346 l 578 1129 q 583 1128 579 1128 l 751 1128 q 758 1133 757 1128 q 757 1140 760 1138 l 542 1354 z "},"é":{"ha":436,"x_min":42,"x_max":785,"o":"m 343 993 l 44 1 q 51 -7 42 -7 l 406 -7 q 413 -1 410 -7 l 467 179 q 460 188 469 188 l 288 188 l 357 421 l 525 421 q 532 426 529 421 l 588 607 q 581 615 590 615 l 417 615 l 472 804 l 649 804 q 656 810 653 804 l 711 990 q 704 999 714 999 l 350 999 q 343 993 346 999 m 606 1354 l 388 1140 q 386 1133 385 1138 q 393 1128 388 1128 l 563 1129 l 782 1343 q 784 1351 785 1346 q 778 1356 783 1356 l 611 1356 q 606 1354 607 1356 z "},"ê":{"ha":436,"x_min":42,"x_max":765,"o":"m 343 993 l 44 1 q 51 -7 42 -7 l 406 -7 q 413 -1 410 -7 l 467 179 q 460 188 469 188 l 288 188 l 357 421 l 525 421 q 532 426 529 421 l 588 607 q 581 615 590 615 l 417 615 l 472 804 l 649 804 q 656 810 653 804 l 711 990 q 704 999 714 999 l 350 999 q 343 993 346 999 m 315 1063 l 446 1063 q 451 1065 449 1063 l 594 1285 l 622 1082 q 629 1076 622 1076 l 758 1076 q 765 1085 765 1076 l 714 1460 q 707 1465 714 1465 l 589 1465 q 583 1463 586 1465 l 310 1074 q 309 1066 307 1069 q 315 1063 311 1063 z "},"ë":{"ha":436,"x_min":42,"x_max":832,"o":"m 343 993 l 44 1 q 51 -7 42 -7 l 406 -7 q 413 -1 410 -7 l 467 179 q 460 188 469 188 l 288 188 l 357 421 l 525 421 q 532 426 529 421 l 588 607 q 581 615 590 615 l 417 615 l 472 804 l 649 804 q 656 810 653 804 l 711 990 q 704 999 714 999 l 350 999 q 343 993 346 999 m 822 1353 l 669 1353 q 663 1347 665 1353 l 608 1167 q 615 1158 606 1158 l 768 1158 q 775 1164 772 1158 l 829 1344 q 822 1353 832 1353 m 547 1354 l 394 1354 q 388 1349 390 1354 l 333 1168 q 340 1160 331 1160 l 493 1160 q 500 1165 497 1160 l 554 1346 q 547 1354 557 1354 z "},"ì":{"ha":285,"x_min":57,"x_max":685,"o":"m 363 990 l 356 985 l 361 985 l 67 7 l 224 7 l 222 1 l 229 7 l 224 7 l 518 985 l 361 985 l 363 990 m 467 1354 q 461 1356 465 1356 l 294 1356 q 288 1351 289 1356 q 289 1343 286 1346 l 503 1129 q 508 1128 504 1128 l 676 1128 q 683 1133 682 1128 q 682 1140 685 1138 l 467 1354 m 57 7 l 64 -1 l 67 7 l 57 7 m 528 985 l 521 993 l 518 985 l 528 985 z "},"í":{"ha":285,"x_min":47,"x_max":693,"o":"m 57 -7 l 229 -7 q 236 -1 233 -7 l 535 990 q 528 999 538 999 l 356 999 q 349 993 351 999 l 50 1 q 57 -7 47 -7 m 514 1354 l 296 1140 q 294 1133 293 1138 q 301 1128 296 1128 l 471 1129 l 690 1343 q 692 1351 693 1346 q 686 1356 692 1356 l 519 1356 q 514 1354 515 1356 z "},"î":{"ha":285,"x_min":47,"x_max":683,"o":"m 57 -7 l 229 -7 q 236 -1 233 -7 l 535 990 q 528 999 538 999 l 356 999 q 349 993 351 999 l 50 1 q 57 -7 47 -7 m 233 1063 l 364 1063 q 369 1065 367 1063 l 513 1285 l 540 1082 q 547 1076 540 1076 l 676 1076 q 683 1085 683 1076 l 632 1460 q 625 1465 632 1465 l 507 1465 q 501 1463 504 1465 l 228 1074 q 227 1066 225 1069 q 233 1063 229 1063 z "},"ï":{"ha":285,"x_min":47,"x_max":740,"o":"m 57 -7 l 229 -7 q 236 -1 233 -7 l 535 990 q 528 999 538 999 l 356 999 q 349 993 351 999 l 50 1 q 57 -7 47 -7 m 731 1353 l 578 1353 q 571 1347 574 1353 l 517 1167 q 524 1158 514 1158 l 676 1158 q 683 1164 681 1158 l 738 1344 q 731 1353 740 1353 m 456 1354 l 303 1354 q 296 1349 299 1354 l 242 1168 q 249 1160 239 1160 l 401 1160 q 408 1165 406 1160 l 463 1346 q 456 1354 465 1354 z "},"ð":{"ha":524,"x_min":76,"x_max":743,"o":"m 299 806 l 497 804 q 535 778 535 804 q 533 763 535 768 q 522 706 531 739 q 493 615 513 674 q 450 478 476 561 q 388 268 424 396 l 388 269 q 362 211 374 229 q 333 189 350 193 q 328 185 328 189 l 257 3 q 264 -7 254 -7 q 368 3 322 -7 q 450 41 414 14 q 514 115 486 68 q 564 232 542 161 l 721 757 q 738 822 732 793 q 743 875 743 851 q 697 973 743 947 q 563 999 650 999 l 350 999 q 343 993 346 999 l 292 814 q 299 806 289 806 m 86 435 l 358 435 q 365 440 363 435 l 415 607 q 408 615 418 615 l 136 615 q 129 610 132 615 l 79 443 q 86 435 76 435 z "},"ñ":{"ha":633,"x_min":42,"x_max":890,"o":"m 517 349 l 576 992 q 569 999 576 999 l 350 999 q 343 993 346 999 l 44 1 q 51 -7 42 -7 l 215 -7 q 222 -1 219 -7 l 413 632 l 358 0 q 365 -7 358 -7 l 582 -7 q 589 -1 586 -7 l 888 990 q 881 999 890 999 l 718 999 q 711 993 714 999 l 517 349 m 821 1193 l 825 1290 q 820 1297 825 1296 q 813 1294 815 1299 q 760 1241 782 1260 q 718 1222 738 1222 q 695 1229 707 1222 q 665 1249 683 1236 l 651 1258 q 607 1284 628 1275 q 565 1293 586 1293 q 490 1267 525 1293 q 424 1199 454 1242 l 419 1103 q 424 1096 419 1097 q 432 1099 429 1094 q 484 1152 463 1133 q 525 1171 506 1171 q 579 1144 543 1171 l 593 1135 q 638 1109 617 1118 q 678 1100 658 1100 q 753 1126 718 1100 q 821 1193 789 1151 z "},"ò":{"ha":524,"x_min":90,"x_max":776,"o":"m 282 776 l 113 213 q 96 148 101 176 q 90 97 90 119 q 133 10 90 33 q 257 -12 175 -12 q 355 -3 311 -12 q 433 33 399 7 q 494 103 468 58 q 542 215 521 147 l 711 779 q 732 894 732 850 q 690 981 732 958 q 567 1004 649 1004 q 467 994 511 1004 q 390 959 424 985 q 329 889 356 933 q 282 776 303 844 m 271 217 l 440 778 q 465 824 449 810 q 513 838 482 838 q 557 801 557 838 q 553 775 557 789 l 383 213 q 356 167 372 181 q 311 154 340 154 q 265 189 265 154 q 267 202 265 196 q 271 217 268 208 m 558 1351 q 553 1353 557 1353 l 386 1353 q 379 1348 381 1353 q 381 1340 378 1343 l 594 1126 q 600 1125 596 1125 l 768 1125 q 775 1130 774 1125 q 774 1138 776 1135 l 558 1351 z "},"ó":{"ha":524,"x_min":76,"x_max":817,"o":"m 268 779 l 99 215 q 82 150 88 179 q 76 97 76 121 q 123 -1 76 25 q 257 -26 169 -26 q 360 -16 314 -26 q 442 22 406 -6 q 506 95 478 49 q 556 213 533 142 l 725 776 q 746 894 746 847 q 700 992 746 967 q 567 1018 654 1018 q 463 1008 508 1018 q 382 970 418 997 q 318 897 346 943 q 268 779 290 850 m 285 214 l 454 775 q 513 824 465 824 q 543 801 543 824 q 539 778 543 792 l 369 217 l 369 218 q 347 179 360 190 q 311 168 335 168 q 279 189 279 168 q 281 199 279 192 q 285 214 282 206 m 638 1354 l 419 1140 q 418 1133 417 1138 q 425 1128 419 1128 l 594 1129 l 814 1343 q 816 1351 817 1346 q 810 1356 815 1356 l 643 1356 q 638 1354 639 1356 z "},"ô":{"ha":524,"x_min":76,"x_max":797,"o":"m 268 779 l 99 215 q 82 150 88 179 q 76 97 76 121 q 123 -1 76 25 q 257 -26 169 -26 q 360 -16 314 -26 q 442 22 406 -6 q 506 95 478 49 q 556 213 533 142 l 725 776 q 746 894 746 847 q 700 992 746 967 q 567 1018 654 1018 q 463 1008 508 1018 q 382 970 418 997 q 318 897 346 943 q 268 779 290 850 m 347 1063 l 478 1063 q 483 1065 481 1063 l 626 1285 l 654 1082 q 661 1076 654 1076 l 790 1076 q 797 1085 797 1076 l 746 1460 q 739 1465 746 1465 l 621 1465 q 615 1463 618 1465 l 342 1074 q 341 1066 339 1069 q 347 1063 343 1063 m 285 214 l 454 775 q 513 824 465 824 q 543 801 543 824 q 539 778 543 792 l 369 217 l 369 218 q 347 179 360 190 q 311 168 335 168 q 279 189 279 168 q 281 199 279 192 q 285 214 282 206 z "},"õ":{"ha":524,"x_min":76,"x_max":781,"o":"m 268 779 l 99 215 q 82 150 88 179 q 76 97 76 121 q 123 -1 76 25 q 257 -26 169 -26 q 360 -16 314 -26 q 442 22 406 -6 q 506 95 478 49 q 556 213 533 142 l 725 776 q 746 894 746 847 q 700 992 746 967 q 567 1018 654 1018 q 463 1008 508 1018 q 382 970 418 997 q 318 897 346 943 q 268 779 290 850 m 285 214 l 454 775 q 513 824 465 824 q 543 801 543 824 q 539 778 543 792 l 369 217 l 369 218 q 347 179 360 190 q 311 168 335 168 q 279 189 279 168 q 281 199 279 192 q 285 214 282 206 m 776 1193 l 781 1290 q 776 1297 781 1296 q 768 1294 771 1299 q 715 1241 738 1260 q 674 1222 693 1222 q 651 1229 663 1222 q 621 1249 639 1236 l 607 1258 q 563 1284 583 1275 q 521 1293 542 1293 q 445 1267 481 1293 q 379 1199 410 1242 l 375 1103 q 380 1096 375 1097 q 388 1099 385 1094 q 440 1152 418 1133 q 481 1171 461 1171 q 535 1144 499 1171 l 549 1135 q 593 1109 572 1118 q 633 1100 614 1100 q 709 1126 674 1100 q 776 1193 744 1151 z "},"ö":{"ha":524,"x_min":76,"x_max":868,"o":"m 268 779 l 99 215 q 82 150 88 179 q 76 97 76 121 q 123 -1 76 25 q 257 -26 169 -26 q 360 -16 314 -26 q 442 22 406 -6 q 506 95 478 49 q 556 213 533 142 l 725 776 q 746 894 746 847 q 700 992 746 967 q 567 1018 654 1018 q 463 1008 508 1018 q 382 970 418 997 q 318 897 346 943 q 268 779 290 850 m 285 214 l 454 775 q 513 824 465 824 q 543 801 543 824 q 539 778 543 792 l 369 217 l 369 218 q 347 179 360 190 q 311 168 335 168 q 279 189 279 168 q 281 199 279 192 q 285 214 282 206 m 583 1353 l 431 1353 q 424 1347 426 1353 l 369 1167 q 376 1158 367 1158 l 529 1158 q 536 1164 533 1158 l 590 1344 q 583 1353 593 1353 m 858 1351 l 706 1351 q 699 1346 701 1351 l 644 1165 q 651 1157 642 1157 l 804 1157 q 811 1163 808 1157 l 865 1343 q 858 1351 868 1351 z "},"÷":{"ha":633,"x_min":153,"x_max":749,"o":"m 163 344 l 689 344 q 696 350 693 344 l 746 517 q 739 525 749 525 l 213 525 q 206 519 208 525 l 156 353 q 163 344 153 344 m 494 285 l 342 285 q 335 279 338 285 l 281 99 q 288 90 278 90 l 440 90 q 447 96 444 90 l 501 276 q 494 285 504 285 m 618 782 l 465 782 q 458 776 461 782 l 404 596 q 411 588 401 588 l 564 588 q 571 593 568 588 l 625 774 q 618 782 628 782 z "},"ø":{"ha":524,"x_min":76,"x_max":746,"o":"m 631 1121 q 624 1129 633 1129 l 582 1129 q 575 1124 578 1129 l 542 1018 q 447 1003 489 1015 q 372 964 406 992 q 314 891 339 936 q 268 779 289 846 l 99 215 l 99 217 q 76 97 76 149 q 114 5 76 32 q 225 -25 151 -22 l 186 -154 q 193 -162 183 -162 l 233 -162 q 240 -157 238 -162 l 281 -26 q 374 -12 332 -25 q 449 27 415 0 q 508 99 482 54 q 556 213 535 144 l 725 776 q 746 894 746 847 q 708 988 746 961 q 599 1017 669 1014 l 631 1121 m 285 214 l 454 775 q 482 818 463 808 l 286 172 q 279 188 279 178 q 285 213 279 197 l 285 214 m 543 801 q 539 778 543 792 l 369 217 l 369 218 q 342 175 357 185 l 538 817 q 543 801 543 808 z "},"ù":{"ha":524,"x_min":90,"x_max":782,"o":"m 617 990 l 610 985 l 615 985 l 392 243 q 358 171 375 188 q 311 154 340 154 q 279 161 290 154 q 268 190 268 168 q 279 246 268 208 l 501 985 l 344 985 l 346 990 l 339 985 l 344 985 l 113 213 q 96 148 101 176 q 90 97 90 119 q 133 10 90 33 q 257 -12 175 -12 q 355 -3 311 -12 q 433 33 399 7 q 494 103 468 58 q 542 215 521 147 l 772 985 l 615 985 l 617 990 m 538 1354 q 532 1356 536 1356 l 365 1356 q 358 1351 360 1356 q 360 1343 357 1346 l 574 1129 q 579 1128 575 1128 l 747 1128 q 754 1133 753 1128 q 753 1140 756 1138 l 538 1354 m 782 985 l 775 993 l 772 985 l 782 985 m 511 985 l 504 993 l 501 985 l 511 985 z "},"ú":{"ha":524,"x_min":76,"x_max":808,"o":"m 556 213 l 789 990 q 782 999 792 999 l 610 999 q 603 993 606 999 l 378 246 q 349 183 363 197 q 311 168 335 168 q 289 172 296 168 q 282 190 282 176 q 293 243 282 206 l 518 990 q 511 999 521 999 l 339 999 q 332 993 335 999 l 99 215 q 82 150 88 179 q 76 97 76 121 q 123 -1 76 25 q 257 -26 169 -26 q 360 -16 314 -26 q 442 22 406 -6 q 506 95 478 49 q 556 213 533 142 m 629 1353 l 411 1139 q 410 1131 408 1136 q 417 1126 411 1126 l 586 1128 l 806 1342 q 808 1349 808 1344 q 801 1354 807 1354 l 635 1354 q 629 1353 631 1354 z "},"û":{"ha":524,"x_min":76,"x_max":800,"o":"m 556 213 l 789 990 q 782 999 792 999 l 610 999 q 603 993 606 999 l 378 246 q 349 183 363 197 q 311 168 335 168 q 289 172 296 168 q 282 190 282 176 q 293 243 282 206 l 518 990 q 511 999 521 999 l 339 999 q 332 993 335 999 l 99 215 q 82 150 88 179 q 76 97 76 121 q 123 -1 76 25 q 257 -26 169 -26 q 360 -16 314 -26 q 442 22 406 -6 q 506 95 478 49 q 556 213 533 142 m 350 1063 l 481 1063 q 486 1065 483 1063 l 629 1285 l 657 1082 q 664 1076 657 1076 l 793 1076 q 800 1085 800 1076 l 749 1460 q 742 1465 749 1465 l 624 1465 q 618 1463 621 1465 l 344 1074 q 344 1066 342 1069 q 350 1063 346 1063 z "},"ü":{"ha":524,"x_min":76,"x_max":864,"o":"m 556 213 l 789 990 q 782 999 792 999 l 610 999 q 603 993 606 999 l 378 246 q 349 183 363 197 q 311 168 335 168 q 289 172 296 168 q 282 190 282 176 q 293 243 282 206 l 518 990 q 511 999 521 999 l 339 999 q 332 993 335 999 l 99 215 q 82 150 88 179 q 76 97 76 121 q 123 -1 76 25 q 257 -26 169 -26 q 360 -16 314 -26 q 442 22 406 -6 q 506 95 478 49 q 556 213 533 142 m 579 1358 l 426 1358 q 419 1353 422 1358 l 365 1172 q 372 1164 363 1164 l 525 1164 q 532 1169 529 1164 l 586 1350 q 579 1358 589 1358 m 854 1357 l 701 1357 q 694 1351 697 1357 l 640 1171 q 647 1163 638 1163 l 800 1163 q 807 1168 804 1163 l 861 1349 q 854 1357 864 1357 z "},"ý":{"ha":547,"x_min":176,"x_max":851,"o":"m 471 657 l 490 992 q 483 999 490 999 l 303 999 q 296 992 296 999 l 293 378 l 293 379 l 179 1 q 186 -7 176 -7 l 358 -7 q 365 -1 363 -7 l 479 375 l 846 988 q 840 999 851 999 l 660 999 q 654 994 658 999 l 471 657 m 647 1354 l 429 1140 q 428 1133 426 1138 q 435 1128 429 1128 l 604 1129 l 824 1343 q 826 1351 826 1346 q 819 1356 825 1356 l 653 1356 q 647 1354 649 1356 z "},"þ":{"ha":474,"x_min":39,"x_max":654,"o":"m 264 151 l 296 151 q 401 162 357 151 q 478 199 446 172 q 534 270 511 225 q 576 383 557 315 l 632 572 q 649 640 643 610 q 654 694 654 669 q 613 783 654 760 q 482 807 572 807 l 453 807 l 507 990 q 500 999 510 999 l 338 999 q 331 993 333 999 l 42 1 q 49 -7 39 -7 l 211 -7 q 218 -1 215 -7 l 264 151 m 397 613 l 417 613 q 450 593 447 613 l 450 586 q 429 481 450 557 q 405 408 415 436 q 385 368 394 379 q 335 346 368 346 l 319 346 l 397 613 z "},"ÿ":{"ha":547,"x_min":176,"x_max":876,"o":"m 471 657 l 490 992 q 483 999 490 999 l 303 999 q 296 992 296 999 l 293 378 l 293 379 l 179 1 q 186 -7 176 -7 l 358 -7 q 365 -1 363 -7 l 479 375 l 846 988 q 840 999 851 999 l 660 999 q 654 994 658 999 l 471 657 m 867 1354 l 714 1354 q 707 1349 710 1354 l 653 1168 q 660 1160 650 1160 l 813 1160 q 819 1165 817 1160 l 874 1346 q 867 1354 876 1354 m 592 1356 l 439 1356 q 432 1350 435 1356 l 378 1169 q 385 1161 375 1161 l 538 1161 q 544 1167 542 1161 l 599 1347 q 592 1356 601 1356 z "},"Œ":{"ha":700,"x_min":76,"x_max":981,"o":"m 567 1018 q 463 1008 508 1018 q 382 970 418 997 q 318 897 346 943 q 268 779 290 850 l 99 215 q 82 150 88 179 q 76 97 76 121 q 123 -1 76 25 q 257 -26 169 -26 q 331 -22 297 -26 q 393 -6 365 -17 l 667 -6 q 674 0 671 -6 l 728 181 q 721 189 731 189 l 549 189 l 618 422 l 786 422 q 793 428 790 422 l 849 608 q 842 617 851 617 l 678 617 l 739 824 l 915 824 q 922 829 919 824 l 978 1010 q 971 1018 981 1018 l 567 1018 m 285 214 l 454 775 q 513 824 465 824 q 543 801 543 824 q 539 778 543 792 l 369 217 l 369 218 q 347 179 360 190 q 311 168 335 168 q 279 189 279 168 q 281 199 279 192 q 285 214 282 206 z "},"œ":{"ha":700,"x_min":76,"x_max":981,"o":"m 567 1018 q 463 1008 508 1018 q 382 970 418 997 q 318 897 346 943 q 268 779 290 850 l 99 215 q 82 150 88 179 q 76 97 76 121 q 123 -1 76 25 q 257 -26 169 -26 q 331 -22 297 -26 q 393 -6 365 -17 l 667 -6 q 674 0 671 -6 l 728 181 q 721 189 731 189 l 549 189 l 618 422 l 786 422 q 793 428 790 422 l 849 608 q 842 617 851 617 l 678 617 l 739 824 l 915 824 q 922 829 919 824 l 978 1010 q 971 1018 981 1018 l 567 1018 m 285 214 l 454 775 q 513 824 465 824 q 543 801 543 824 q 539 778 543 792 l 369 217 l 369 218 q 347 179 360 190 q 311 168 335 168 q 279 189 279 168 q 281 199 279 192 q 285 214 282 206 z "},"Š":{"ha":481,"x_min":200,"x_max":856,"o":"m 844 1465 l 714 1465 q 708 1463 711 1465 l 556 1203 l 538 1444 q 531 1451 538 1451 l 401 1451 q 394 1443 394 1451 l 440 1006 q 319 924 365 983 q 240 760 272 864 q 218 628 218 685 q 226 563 218 592 q 245 510 233 535 q 272 466 257 486 q 303 428 288 446 q 346 369 326 399 q 365 299 365 340 q 357 244 365 275 q 329 186 344 204 q 289 168 314 168 q 275 169 281 168 q 267 165 269 172 l 203 -17 q 210 -26 200 -26 l 235 -26 q 347 -13 299 -26 q 431 33 394 0 q 494 118 467 65 q 544 250 521 171 q 560 320 556 288 q 565 381 565 353 q 557 449 565 418 q 536 504 549 479 q 508 549 524 529 q 478 588 493 569 q 436 642 454 615 q 418 704 418 668 q 419 724 418 714 q 425 746 421 733 q 451 806 436 788 q 490 824 467 824 q 518 794 518 824 q 510 750 518 779 l 510 751 l 492 696 q 499 686 489 686 l 667 686 q 674 692 671 686 l 697 769 q 718 885 718 838 q 686 978 718 947 q 590 1015 654 1008 l 850 1454 q 844 1465 856 1465 z "},"š":{"ha":481,"x_min":200,"x_max":856,"o":"m 499 686 l 667 686 q 674 692 671 686 l 697 769 q 718 885 718 838 q 686 978 718 947 q 590 1015 654 1008 l 850 1454 q 844 1465 856 1465 l 714 1465 q 708 1463 711 1465 l 556 1203 l 538 1444 q 531 1451 538 1451 l 401 1451 q 394 1443 394 1451 l 440 1006 q 319 924 365 983 q 240 760 272 864 q 218 628 218 685 q 226 563 218 592 q 245 510 233 535 q 272 466 257 486 q 303 428 288 446 q 346 369 326 399 q 365 299 365 340 q 357 244 365 275 q 329 186 344 204 q 289 168 314 168 q 275 169 281 168 q 267 165 269 172 l 203 -17 q 210 -26 200 -26 l 235 -26 q 347 -13 299 -26 q 431 33 394 0 q 494 118 467 65 q 544 250 521 171 q 560 320 556 288 q 565 381 565 353 q 557 449 565 418 q 536 504 549 479 q 508 549 524 529 q 478 588 493 569 q 436 642 454 615 q 418 704 418 668 q 419 724 418 714 q 425 746 421 733 q 451 806 436 788 q 490 824 467 824 q 518 794 518 824 q 510 750 518 779 l 510 751 l 492 696 q 499 686 489 686 z "},"Ÿ":{"ha":547,"x_min":176,"x_max":876,"o":"m 471 657 l 490 992 q 483 999 490 999 l 303 999 q 296 992 296 999 l 293 379 l 179 1 q 186 -7 176 -7 l 358 -7 q 365 -1 363 -7 l 479 375 l 846 988 q 840 999 851 999 l 660 999 q 654 994 658 999 l 471 657 m 867 1354 l 714 1354 q 707 1349 710 1354 l 653 1168 q 660 1160 650 1160 l 813 1160 q 819 1165 817 1160 l 874 1346 q 867 1354 876 1354 m 592 1356 l 439 1356 q 432 1350 435 1356 l 378 1169 q 385 1161 375 1161 l 538 1161 q 544 1167 542 1161 l 599 1347 q 592 1356 601 1356 z "},"ƒ":{"ha":474,"x_min":-85,"x_max":724,"o":"m 501 428 q 508 432 506 428 l 546 533 q 539 543 549 543 l 467 543 l 547 753 q 578 813 564 797 q 617 829 593 829 l 653 829 q 660 833 657 829 l 721 989 q 714 999 724 999 l 621 999 q 556 984 589 999 q 494 944 524 969 q 442 883 465 918 q 401 806 418 847 l 301 543 l 224 543 q 217 539 218 543 l 179 438 q 186 428 176 428 l 501 428 m -82 -246 q -75 -256 -85 -256 l 14 -256 q 140 -201 78 -256 q 233 -65 200 -146 l 386 296 q 379 306 389 306 l 235 306 q 228 301 229 306 l 90 -10 q 58 -72 72 -57 q 19 -86 44 -86 l -17 -86 q -24 -90 -22 -86 l -82 -246 z "},"ˆ":{"ha":708,"x_min":300,"x_max":758,"o":"m 308 1063 l 439 1063 q 444 1065 442 1063 l 588 1285 l 615 1082 q 622 1076 615 1076 l 751 1076 q 758 1085 758 1076 l 707 1460 q 700 1465 707 1465 l 582 1465 q 576 1463 579 1465 l 303 1074 q 302 1066 300 1069 q 308 1063 304 1063 z "},"˜":{"ha":447,"x_min":79,"x_max":485,"o":"m 481 1193 l 485 1290 q 480 1297 485 1296 q 472 1294 475 1299 q 419 1241 442 1260 q 378 1222 397 1222 q 355 1229 367 1222 q 325 1249 343 1236 l 311 1258 q 267 1284 288 1275 q 225 1293 246 1293 q 149 1267 185 1293 q 83 1199 114 1242 l 79 1103 q 84 1096 79 1097 q 92 1099 89 1094 q 144 1152 122 1133 q 185 1171 165 1171 q 239 1144 203 1171 l 253 1135 q 297 1109 276 1118 q 338 1100 318 1100 q 413 1126 378 1100 q 481 1193 449 1151 z "},"–":{"ha":633,"x_min":128,"x_max":724,"o":"m 138 269 l 664 269 q 671 275 668 269 l 721 442 q 714 450 724 450 l 188 450 q 181 444 183 450 l 131 278 q 138 269 128 269 z "},"—":{"ha":808,"x_min":124,"x_max":904,"o":"m 133 268 l 844 268 q 851 274 849 268 l 901 440 q 894 449 904 449 l 183 449 q 176 443 179 449 l 126 276 q 133 268 124 268 z "},"‘":{"ha":256,"x_min":221,"x_max":515,"o":"m 231 621 l 383 621 q 390 626 388 621 l 444 807 q 438 815 447 815 l 392 815 l 510 985 q 504 996 515 996 l 418 996 q 413 993 415 996 l 278 811 l 224 629 q 231 621 221 621 z "},"’":{"ha":256,"x_min":214,"x_max":508,"o":"m 499 996 l 346 996 q 339 990 342 996 l 285 810 q 292 801 282 801 l 336 801 l 219 632 q 225 621 214 621 l 311 621 q 317 624 314 621 l 451 806 l 506 988 q 499 996 508 996 z "},"‚":{"ha":240,"x_min":-15,"x_max":250,"o":"m 101 167 l -12 -208 q -6 -217 -15 -217 l 126 -217 q 133 -211 131 -217 l 247 164 q 240 172 250 172 l 108 172 q 101 167 104 172 z "},"“":{"ha":493,"x_min":221,"x_max":754,"o":"m 231 621 l 383 621 q 390 626 388 621 l 444 807 q 438 815 447 815 l 392 815 l 510 985 q 504 996 515 996 l 418 996 q 413 993 415 996 l 278 811 l 224 629 q 231 621 221 621 m 469 621 l 622 621 q 629 626 626 621 l 683 807 q 676 815 686 815 l 631 815 l 749 985 q 743 996 754 996 l 657 996 q 651 993 654 996 l 517 811 l 463 629 q 469 621 460 621 z "},"”":{"ha":340,"x_min":214,"x_max":747,"o":"m 499 996 l 346 996 q 339 990 342 996 l 285 810 q 292 801 282 801 l 336 801 l 219 632 q 225 621 214 621 l 311 621 q 317 624 314 621 l 451 806 l 506 988 q 499 996 508 996 m 738 994 l 585 994 q 578 989 581 994 l 524 808 q 531 800 521 800 l 575 800 l 458 631 q 464 619 453 619 l 550 619 q 556 622 553 619 l 690 804 l 744 986 q 738 994 747 994 z "},"„":{"ha":454,"x_min":-15,"x_max":464,"o":"m 101 167 l -12 -208 q -6 -217 -15 -217 l 126 -217 q 133 -211 131 -217 l 247 164 q 240 172 250 172 l 108 172 q 101 167 104 172 m 315 168 l 201 -207 q 208 -215 199 -215 l 340 -215 q 347 -210 344 -215 l 461 165 q 454 174 464 174 l 322 174 q 315 168 318 174 z "},"†":{"ha":474,"x_min":165,"x_max":664,"o":"m 224 707 l 183 571 q 190 563 181 563 l 331 563 l 281 390 q 288 382 278 382 l 411 382 q 418 388 415 382 l 469 563 l 614 563 q 621 568 618 563 l 661 704 q 654 713 664 713 l 514 713 l 588 965 q 581 974 590 974 l 456 974 q 449 968 451 974 l 375 713 l 231 713 q 224 707 226 713 m 299 -7 q 306 -1 303 -7 l 389 289 q 382 297 392 297 l 258 297 q 251 292 254 297 l 168 1 q 175 -7 165 -7 l 299 -7 z "},"‡":{"ha":474,"x_min":72,"x_max":681,"o":"m 247 771 q 240 765 243 771 l 201 635 q 208 626 199 626 l 633 626 q 640 632 638 626 l 678 763 q 671 771 681 771 l 528 771 l 585 965 q 578 974 588 974 l 453 974 q 446 968 449 974 l 389 771 l 247 771 m 119 335 q 113 329 115 335 l 75 199 q 82 190 72 190 l 221 190 l 165 1 q 172 -7 163 -7 l 297 -7 q 304 -1 301 -7 l 360 190 l 507 190 q 514 196 511 190 l 551 326 q 544 335 554 335 l 119 335 z "},"•":{"ha":556,"x_min":204,"x_max":640,"o":"m 217 497 q 204 413 204 453 q 244 289 204 338 q 350 240 283 240 q 435 260 392 240 q 515 315 478 281 q 583 396 553 350 q 628 494 613 442 q 640 581 640 538 q 601 703 640 656 q 494 751 561 751 q 410 731 453 751 q 329 677 367 711 q 262 597 292 643 q 217 497 232 550 z "},"…":{"ha":810,"x_min":40,"x_max":822,"o":"m 532 186 l 379 186 q 372 181 375 186 l 318 0 q 325 -8 315 -8 l 478 -8 q 485 -3 482 -8 l 539 178 q 532 186 542 186 m 813 189 l 660 189 q 653 183 656 189 l 599 3 q 606 -6 596 -6 l 758 -6 q 765 0 763 -6 l 819 181 q 813 189 822 189 m 257 188 l 104 188 q 97 182 100 188 l 43 1 q 50 -7 40 -7 l 203 -7 q 210 -1 207 -7 l 264 179 q 257 188 267 188 z "},"‰":{"ha":1061,"x_min":36,"x_max":1140,"o":"m 513 649 l 574 849 q 582 903 582 878 q 560 965 582 943 q 504 988 539 988 l 433 988 q 349 953 390 988 q 286 851 307 918 l 225 651 q 217 599 217 622 q 238 535 217 557 q 294 513 260 513 l 325 513 q 332 517 329 513 l 367 621 q 360 631 369 631 q 343 649 343 631 q 344 658 343 654 l 397 838 l 397 836 q 413 859 401 849 q 439 869 425 869 q 453 865 449 869 q 457 853 457 860 q 454 840 457 849 l 401 663 q 375 633 397 644 q 371 629 371 633 l 335 522 q 342 513 332 513 l 365 513 q 451 547 408 513 q 513 649 493 582 m 1071 117 l 1132 317 q 1140 371 1140 346 q 1119 433 1140 411 q 1063 456 1097 456 l 992 456 q 907 421 949 456 q 844 319 865 386 l 783 119 q 775 67 775 90 q 797 3 775 25 q 853 -19 818 -19 l 883 -19 q 890 -15 888 -19 l 925 89 q 918 99 928 99 q 901 117 901 99 q 903 126 901 122 l 956 306 l 956 304 q 972 327 960 317 q 997 338 983 338 q 1011 333 1007 338 q 1015 321 1015 328 q 1013 308 1015 317 l 960 131 q 933 101 956 113 q 929 97 929 101 l 893 -10 q 900 -19 890 -19 l 924 -19 q 1009 15 967 -19 q 1071 117 1051 50 m 569 125 l 622 306 l 622 304 q 649 333 629 324 q 653 338 653 333 l 686 446 q 679 454 689 454 l 657 454 q 572 419 614 454 q 510 318 531 385 l 451 118 q 443 64 443 89 q 465 1 443 24 q 521 -21 486 -21 l 592 -21 q 676 14 635 -21 q 739 114 718 49 l 797 315 q 806 369 806 344 q 784 432 806 410 q 728 454 763 454 l 696 454 q 689 449 692 454 l 658 344 q 665 336 656 336 q 682 319 682 333 q 679 308 682 317 l 626 129 q 613 108 624 118 q 588 97 603 97 q 572 103 576 97 q 568 117 568 110 q 569 125 568 121 m 975 988 l 894 988 q 889 985 892 988 l 39 -10 q 38 -17 36 -12 q 44 -21 39 -21 l 125 -21 q 131 -18 128 -21 l 981 976 q 982 983 983 979 q 975 988 981 988 z "},"‹":{"ha":268,"x_min":146,"x_max":447,"o":"m 146 357 l 190 183 q 197 178 193 178 l 313 178 q 319 186 322 178 l 276 356 l 444 526 q 446 534 447 529 q 439 539 444 539 l 324 539 q 318 538 319 539 l 147 364 q 146 357 146 363 z "},"›":{"ha":268,"x_min":67,"x_max":357,"o":"m 292 539 l 176 539 q 169 529 167 539 l 226 360 l 69 189 q 68 182 67 186 q 75 178 69 178 l 192 178 q 197 181 194 178 l 356 354 q 357 361 357 356 l 299 535 q 292 539 296 539 z "},"™":{"ha":683,"x_min":206,"x_max":956,"o":"m 649 643 l 717 990 q 710 999 719 999 l 563 999 q 556 993 558 999 l 396 461 q 403 453 393 453 l 490 453 q 497 458 494 453 l 601 806 l 540 461 q 547 453 538 453 l 640 453 q 647 457 644 453 l 793 801 l 692 461 q 699 453 689 453 l 785 453 q 792 458 789 453 l 953 990 q 946 999 956 999 l 799 999 q 792 994 793 999 l 649 643 m 336 888 l 208 461 q 215 453 206 453 l 307 453 q 314 458 311 453 l 443 888 l 506 888 q 513 893 510 888 l 543 990 q 536 999 546 999 l 307 999 q 300 993 303 999 l 269 896 q 276 888 267 888 l 336 888 z "}}}
